<?xml version="1.0" encoding="UTF-8"?>
<svg id="Calque_2" data-name="Calque 2" xmlns="http://www.w3.org/2000/svg" viewBox="0 0 135.57 9.3">
  <g id="Calque_1-2" data-name="Calque 1">
    <g>
      <path d="m3.36,0l2.68,1.25-.28.6-.6-.28-2.8,6,.6.28-.28.6-2.68-1.25.28-.6.6.28L3.69.89l-.6-.28.28-.6Z" style="fill: #fff;"/>
      <path d="m10.89,7.98c-.8-.37-1.34-.94-1.63-1.69-.29-.75-.25-1.52.11-2.3.36-.78.93-1.3,1.69-1.56.77-.26,1.55-.21,2.35.16.8.37,1.35.94,1.64,1.7.29.76.25,1.52-.11,2.3-.36.78-.93,1.3-1.69,1.56-.76.26-1.55.2-2.35-.17Zm.01-3.76c-.32.7-.44,1.36-.35,2.01.09.64.36,1.06.8,1.27.38.18.75.16,1.11-.04s.67-.57.92-1.1c.33-.7.44-1.38.35-2.02-.1-.64-.37-1.07-.82-1.28-.37-.17-.73-.15-1.09.06-.36.21-.67.58-.92,1.11Z" style="fill: #fff;"/>
      <path d="m16.58,6.26l1.79-3.84-.53-.09.23-.5,1.94.29.06.03-.41.84c.5-.13.94-.19,1.31-.19.38,0,.7.06.96.18.45.21.74.51.88.91.14.4.09.84-.13,1.32l-1.49,3.19.47.22-.24.51-2.24-1.04.24-.51.48.22,1.41-3.03c.12-.26.15-.49.08-.68-.07-.2-.23-.35-.47-.47-.2-.09-.44-.14-.72-.15-.27,0-.55.04-.84.13l-1.51,3.24.48.22-.24.51-2.24-1.04.24-.51.47.22Z" style="fill: #fff;"/>
      <path d="m28.41,1.04l-.25.53-.53-.05-2.85,6.11.47.22-.24.51-2.23-1.04.24-.51.48.22,2.65-5.69-.55-.06.25-.53,2.57.3Z" style="fill: #fff;"/>
      <path d="m30.32,2c-.03.21-.05.42-.07.64-.02.22-.02.44-.03.67.48-.24.88-.38,1.19-.43.32-.05.6-.02.85.1.18.08.39.22.64.42.24.2.42.32.53.37.09.04.19.07.28.09s.21.01.35,0l.11.34c-.12.08-.25.16-.38.26-.13.1-.28.22-.45.36l-4.5,3.74c-.44.36-.84.6-1.2.7-.36.1-.69.08-1.01-.07-.13-.06-.26-.14-.36-.23-.11-.09-.2-.19-.27-.3l.8-.94c.13.14.24.25.33.32.09.07.18.13.27.18.19.09.38.11.57.08.19-.03.38-.13.56-.28l.44-.37-.14-5.04-.51-.02v-.49s1.98-.09,1.98-.09Zm2.44,2.49c-.07,0-.14,0-.2-.02-.06-.02-.13-.04-.21-.07-.1-.05-.26-.17-.47-.36-.21-.19-.38-.32-.52-.39-.15-.07-.32-.09-.51-.07-.2.02-.41.09-.65.21v2.83s2.56-2.13,2.56-2.13Z" style="fill: #fff;"/>
      <path d="m45.66,1.74l-.25.53-.53-.05-2.85,6.11.48.22-.24.51-1.66-.78.17-.64c-.36.13-.71.19-1.03.19-.33,0-.62-.06-.89-.18-.6-.28-.98-.74-1.14-1.38s-.07-1.33.28-2.07c.38-.82.94-1.4,1.66-1.74.72-.33,1.42-.35,2.07-.04.22.1.42.24.59.39.17.16.32.34.45.56l.62-1.33-.55-.06.25-.53,2.57.3Zm-3.52,2.98c.17-.37.21-.69.11-.99-.09-.29-.31-.52-.64-.67-.36-.17-.74-.13-1.14.1-.4.24-.73.63-.98,1.17-.28.61-.39,1.17-.31,1.68.08.51.32.86.71,1.05.17.08.36.11.56.11s.41-.05.6-.15l1.08-2.31Z" style="fill: #fff;"/>
      <path d="m47.82,1.79l.39.35-.26.32c.28-.02.55-.02.8.02.25.04.48.11.7.21.58.27.94.62,1.1,1.05s.09.94-.18,1.53l-1.38,2.97.46.22-.24.51-1.64-.76.15-.64c-.34.14-.67.21-.98.21-.31,0-.61-.06-.9-.19-.47-.22-.79-.56-.95-1.03-.17-.47-.14-.94.08-1.4.27-.59.7-.94,1.29-1.05.58-.11,1.29.03,2.11.41.11.05.21.1.31.16.1.05.21.11.31.17l.17-.36c.12-.26.14-.49.06-.71-.08-.21-.26-.38-.52-.51-.26-.12-.54-.16-.83-.12-.29.04-.57.17-.86.38l-.41-.4,1.22-1.32Zm.93,3.53c-.07-.05-.15-.1-.22-.14-.08-.04-.16-.08-.26-.13-.43-.2-.83-.25-1.2-.16s-.63.31-.79.66c-.14.3-.16.58-.07.85.09.27.28.47.57.6.31.14.59.16.85.04.26-.12.48-.36.65-.72l.47-1Z" style="fill: #fff;"/>
      <path d="m54.47,1.62l.32.25-.53,1.14,1.01.47-.26.39c-.06.08-.11.13-.15.15-.04.01-.12,0-.22-.05l-.68-.32-1.41,3.03c-.12.26-.17.47-.15.62.02.15.12.27.29.35.08.04.16.06.25.07s.21,0,.35-.02l.07.43c-.32.11-.62.16-.92.15-.29,0-.57-.07-.82-.19-.38-.18-.61-.4-.68-.68-.08-.28-.01-.64.2-1.09l1.53-3.27-.54-.25.19-.41c.44.02.85-.04,1.21-.16.36-.13.68-.33.96-.6Z" style="fill: #fff;"/>
      <path d="m60.2,5.63l-3.06-.38c-.06.49,0,.91.16,1.27.17.35.45.62.84.8.27.13.55.19.83.21s.58-.03.89-.13l.16.47c-.5.26-1.01.4-1.53.42-.52.02-1.01-.08-1.49-.3-.69-.32-1.14-.84-1.35-1.54-.21-.71-.13-1.45.23-2.22s.91-1.3,1.64-1.6c.73-.29,1.45-.28,2.15.05.33.15.6.36.82.63.22.27.38.59.48.97.07.27.1.55.1.85,0,.3-.02.49-.06.57-.02.05-.15.06-.39.01-.17-.03-.31-.06-.43-.08Zm-.43-.68c.06-.45.02-.84-.09-1.15-.12-.31-.31-.54-.58-.66-.29-.14-.6-.12-.91.05s-.56.45-.74.83c-.04.1-.09.19-.12.29s-.07.2-.09.3l2.54.34Z" style="fill: #fff;"/>
      <path d="m71.41,4.63l-1.32.42c.02-.48-.03-.86-.15-1.16-.12-.29-.32-.51-.6-.63-.35-.16-.71-.15-1.08.04s-.66.52-.88.98c-.28.61-.35,1.22-.21,1.83.14.61.44,1.03.91,1.24.25.12.52.17.8.16.28-.01.57-.09.88-.24l.18.39c-.44.32-.91.52-1.41.59-.5.07-.98,0-1.43-.22-.71-.33-1.18-.83-1.4-1.49s-.16-1.37.18-2.11c.37-.8.95-1.35,1.75-1.68s1.55-.31,2.28.03c.38.18.7.42.95.73.25.31.44.68.56,1.13Z" style="fill: #fff;"/>
      <path d="m73.8,7.98c-.8-.37-1.34-.94-1.63-1.69-.29-.75-.25-1.52.11-2.3.36-.78.93-1.3,1.69-1.56.77-.26,1.55-.21,2.35.16.8.37,1.35.94,1.64,1.7.29.76.25,1.52-.11,2.3-.36.78-.93,1.3-1.69,1.56-.76.26-1.55.2-2.35-.17Zm.01-3.76c-.32.7-.44,1.36-.35,2.01.09.64.36,1.06.8,1.27.38.18.75.16,1.11-.04s.67-.57.92-1.1c.33-.7.44-1.38.35-2.02-.1-.64-.37-1.07-.82-1.28-.37-.17-.73-.15-1.09.06-.36.21-.67.58-.92,1.11Z" style="fill: #fff;"/>
      <path d="m79.4,6.26l1.79-3.84-.53-.09.23-.5,1.94.29.06.03-.41.84c.5-.13.94-.19,1.31-.19.38,0,.7.06.96.18.45.21.74.51.88.91.14.4.09.84-.13,1.32l-1.49,3.19.47.22-.24.51-2.24-1.04.24-.51.48.22,1.41-3.03c.12-.26.15-.49.08-.68-.07-.2-.23-.35-.47-.47-.2-.09-.44-.14-.72-.15-.27,0-.55.04-.84.13l-1.51,3.24.48.22-.24.51-2.24-1.04.24-.51.47.22Z" style="fill: #fff;"/>
      <path d="m89.67,1.62l.32.25-.53,1.14,1.01.47-.26.39c-.06.08-.11.13-.15.15-.04.01-.12,0-.22-.05l-.68-.32-1.41,3.03c-.12.26-.17.47-.15.62.02.15.12.27.29.35.08.04.16.06.25.07s.21,0,.35-.02l.07.43c-.32.11-.62.16-.92.15-.29,0-.57-.07-.82-.19-.38-.18-.61-.4-.68-.68-.08-.28-.01-.64.2-1.09l1.53-3.27-.54-.25.19-.41c.44.02.85-.04,1.21-.16.36-.13.68-.33.96-.6Z" style="fill: #fff;"/>
      <path d="m95.9,3.4l.33.37-1.27,1.08c-.13-.21-.24-.36-.34-.46-.1-.1-.21-.18-.34-.24-.2-.09-.4-.09-.59,0-.19.1-.35.28-.48.55l-1.24,2.66.6.28-.24.51-2.36-1.1.24-.51.47.22,1.43-3.07c.07-.16.1-.26.1-.32,0-.06-.03-.13-.09-.2l-.33.13-.2-.48,1.43-.72c.21.27.35.52.44.73.08.22.11.44.09.66.35-.26.63-.43.85-.5.22-.07.41-.07.58.01.1.04.2.12.3.22.11.1.21.22.31.37l.3-.19Z" style="fill: #fff;"/>
      <path d="m99.57,2.89l.06.03c-.08.14-.16.27-.23.39-.07.12-.12.24-.17.34l-1.86,3.98.48.22-.24.51-2.24-1.04.24-.51.47.22,1.79-3.84-.53-.09.23-.5,2,.28Zm-.92-1.72c.09-.2.24-.33.46-.41.21-.08.42-.07.62.03.21.1.35.25.42.46.08.21.07.41-.03.62-.09.2-.25.34-.46.42-.21.08-.42.07-.62-.02-.2-.09-.33-.25-.41-.47-.08-.22-.07-.43.02-.62Z" style="fill: #fff;"/>
      <path d="m104.81.35l-.25.53-.53-.05-.94,2.01c.38-.07.73-.1,1.05-.09.32.02.58.07.8.18.56.26.92.68,1.07,1.26.16.58.08,1.2-.22,1.86-.4.86-1.04,1.47-1.9,1.82-.87.35-1.7.34-2.49-.03-.32-.15-.62-.36-.89-.63-.27-.27-.48-.56-.62-.87l2.65-5.69-.55-.06.25-.53,2.57.3Zm-3,5.25c-.21.45-.29.82-.24,1.11.05.29.24.51.57.66.37.17.75.15,1.14-.07.39-.22.71-.6.96-1.13.29-.61.39-1.17.32-1.67-.08-.5-.31-.84-.71-1.03-.14-.06-.29-.1-.45-.11s-.35,0-.56.05l-1.02,2.18Z" style="fill: #fff;"/>
      <path d="m110.15,2.13l.08.04-1.7,3.65c-.12.26-.15.49-.08.68s.22.35.46.46c.19.09.41.13.67.14.25,0,.51-.04.78-.12l1.42-3.04-.53-.09.23-.5,1.91.28.08.04-2.19,4.7.48.22-.24.51-1.71-.8.21-.73c-.45.12-.85.19-1.2.19-.35,0-.66-.05-.91-.17-.45-.21-.75-.52-.88-.91-.14-.4-.09-.84.13-1.32l1.37-2.95-.53-.09.23-.5,1.92.28Z" style="fill: #fff;"/>
      <path d="m117.02,1.62l.32.25-.53,1.14,1.01.47-.26.39c-.06.08-.11.13-.15.15-.04.01-.12,0-.22-.05l-.68-.32-1.41,3.03c-.12.26-.17.47-.15.62.02.15.12.27.29.35.08.04.16.06.25.07s.21,0,.35-.02l.07.43c-.32.11-.62.16-.92.15-.29,0-.57-.07-.82-.19-.38-.18-.61-.4-.68-.68-.08-.28-.01-.64.2-1.09l1.53-3.27-.54-.25.19-.41c.44.02.85-.04,1.21-.16.36-.13.68-.33.96-.6Z" style="fill: #fff;"/>
      <path d="m119.87,7.98c-.8-.37-1.34-.94-1.63-1.69-.29-.75-.25-1.52.11-2.3.36-.78.93-1.3,1.69-1.56.77-.26,1.55-.21,2.35.16.8.37,1.35.94,1.64,1.7.29.76.25,1.52-.11,2.3-.36.78-.93,1.3-1.69,1.56-.76.26-1.55.2-2.35-.17Zm.01-3.76c-.32.7-.44,1.36-.35,2.01.09.64.36,1.06.8,1.27.38.18.75.16,1.11-.04s.67-.57.92-1.1c.33-.7.44-1.38.35-2.02-.1-.64-.37-1.07-.82-1.28-.37-.17-.73-.15-1.09.06-.36.21-.67.58-.92,1.11Z" style="fill: #fff;"/>
      <path d="m130.66,3.4l.33.37-1.27,1.08c-.13-.21-.24-.36-.34-.46-.1-.1-.21-.18-.34-.24-.2-.09-.4-.09-.59,0-.19.1-.35.28-.48.55l-1.24,2.66.6.28-.24.51-2.36-1.1.24-.51.47.22,1.43-3.07c.07-.16.1-.26.1-.32,0-.06-.03-.13-.09-.2l-.33.13-.2-.48,1.43-.72c.21.27.35.52.44.73.08.22.11.44.09.66.35-.26.63-.43.85-.5.22-.07.41-.07.58.01.1.04.2.12.3.22.11.1.21.22.31.37l.3-.19Z" style="fill: #fff;"/>
      <path d="m135.57,3.93l-.96.58c-.16-.4-.31-.7-.47-.93-.16-.22-.34-.38-.55-.47-.15-.07-.3-.08-.44-.04-.14.04-.25.13-.31.27-.13.27.14.79.8,1.55.01.01.03.03.04.04.42.48.66.87.74,1.18.07.3.02.64-.14.99-.23.49-.62.82-1.18.98s-1.13.1-1.71-.17c-.36-.17-.67-.39-.94-.68-.27-.29-.48-.61-.62-.98l1.15-.64c.17.52.35.93.54,1.22.19.29.41.5.67.62.19.09.37.1.55.05s.31-.18.39-.36c.13-.27-.06-.71-.56-1.31-.03-.03-.05-.06-.06-.07-.53-.64-.83-1.12-.9-1.43s-.03-.63.12-.97c.2-.44.54-.72,1.01-.86.47-.13.96-.08,1.48.16.28.13.53.3.75.51.22.21.43.46.62.77Z" style="fill: #fff;"/>
    </g>
  </g>
</svg>