<?xml version="1.0" encoding="UTF-8"?>
<svg id="Calque_2" data-name="Calque 2" xmlns="http://www.w3.org/2000/svg" viewBox="0 0 104.74 112.88">
  <g id="Calque_2-2" data-name="Calque 2">
    <g id="Calque_2-2" data-name="Calque 2-2">
      <g id="Calque_2-2-2" data-name="Calque 2-2">
        <g>
          <g id="Calque_2-2-2" data-name="Calque 2-2-2">
            <g id="Calque_1-2" data-name="Calque 1-2">
              <path d="m104.74,58.57l-.05-3.96c0-.07-.02-.15-.02-.22,0-.11-.02-.21-.04-.35-.01-.13-.04-.26-.05-.39h.04c-.04-.34-.11-.66-.17-.99-1.39-9.65-7.16-18.56-16.4-25.22-9.67-6.97-22.26-10.82-35.46-10.85,0,0-.03-.01-.04-.02h0s-.09.01-.13.01c-13.14,0-25.7,3.77-35.37,10.63C7.42,34.03,1.46,43.32.26,53.37l-.26,5.39h0l.24,1.93h-.02c1.11,10.12,7.03,19.5,16.68,26.4,9.69,6.94,22.31,10.76,35.51,10.76s25.9-3.85,35.61-10.85c9.55-6.88,15.41-16.18,16.55-26.22v-.06h0c.01-.11.03-.21.04-.32l.12-1.82h.01ZM.63,53.4c.06-.47.13-.94.21-1.4h0c.05-.22.13-.43.21-.66.06-.17.12-.34.17-.51,1.08-3.64,2.8-6.78,5.11-9.32,2.11-2.32,5.31-4.39,9.24-5.99.11-.05.23-.08.34-.12.07-.02.14-.05.23-.08.74-.36,1.51-.71,2.3-1.04-3.95,4.1-5.96,9.36-6.45,12.38h-.02l-.26,1.16c-7.2,2.61-10.21,5.76-11.23,8.59l.13-2.85v-.14s.02-.02.02-.02Zm83.81-20.35c-3.6-1.35-7.63-2.45-12.07-3.27-.36-.07-.73-.13-1.1-.19-3.09-3.17-6.78-5.85-10.78-8.34,1.65.18,3.28.42,4.89.7,7.66,3.24,14.12,6.66,19.06,11.1Zm-17.38-10.78c7.56,1.55,14.57,4.28,20.5,8.07,6.51,4.16,11.34,9.34,14.14,15.06-.85-1.52-1.84-2.91-2.98-4.16-2.29-2.52-5.57-4.17-9.04-5.92l-.32-.16c-.11-.06-.24-.11-.34-.15-1.16-.58-2.39-1.12-3.68-1.63-4.73-4.46-10.91-7.91-18.27-11.12h0Zm18.83,12.16l.16.17c4.85,4.49,6.11,9.81,6.43,12.58.02.16-.11.2-.14.21-.03,0-.16.03-.22-.11-.93-2.15-2.95-6.22-5.96-9.31-2.83-2.9-6.81-5.49-11.19-7.28,3.7.81,7.1,1.82,10.16,3.02.25.24.51.48.76.72Zm7.98,24.32h-12.87c.1-3.62-.11-7.33-.67-10.94h-.03c-.09-.87-.25-1.85-.5-2.9,3.76.61,8.57,1.61,12.94,3.17.8,4.03,1.18,7.49,1.14,10.66h-.01Zm-2.39,12.05c-1.42,3.71-3.21,6.68-5.45,9.07h0s-.09.08-.13.12c-3.15,1.38-6.63,2.54-10.35,3.47,3.13-1.35,6.21-3.19,8.82-5.32,2.94-2.39,5.32-5.41,6.8-7.52.09-.13.22-.07.24-.06.02,0,.09.05.1.13h0s0,.06-.01.1h-.02Zm-71.93,9.73l-.68-.69c-2.92-3.1-4.62-6.61-5.54-9.01-.06-.15.06-.22.09-.23.02-.01.15-.07.24.06,1.45,2.07,3.78,5.03,6.72,7.43l.07.06c2.81,2.28,6.16,4.25,9.54,5.62-3.78-.86-7.27-1.94-10.43-3.25h0Zm-7.5-32.41c4.36-1.57,9.17-2.58,12.95-3.2-.25,1.04-.41,2.01-.5,2.89h0c-.56,3.61-.78,7.32-.67,10.94h-12.91c-.03-3.16.34-6.61,1.14-10.63,0,0-.01,0-.01,0Zm7.34-14.25c3.15-1.27,6.64-2.34,10.43-3.17-4.38,1.8-8.35,4.38-11.19,7.28-3.01,3.09-5.03,7.16-5.96,9.31-.06.14-.18.12-.22.11-.03,0-.16-.05-.14-.21.35-3,2.52-8.98,7.08-13.31h0Zm53.59-3.51c.49.16,1.13.37,1.76.63,4.38,1.78,8.35,4.35,11.17,7.24,2.92,3,4.9,6.94,5.84,9.09-3.38-1.11-7.4-2.05-12.04-2.79h0c-.68-2.66-2.76-9.05-8.12-14.51.24.04.47.08.7.12.23.07.47.15.7.22h0Zm7.65,28.39h-27.26l-.81-6.24v-3.63c2.54-.06,5.06-1,7.05-2.86.83-.77,1.53-1.73,2.09-2.84,5.62.24,10.86.69,15.57,1.35l.15.29c.22.43.44.86.64,1.32.33.76.64,1.55.91,2.35.1.27.2.59.31.97.07.24.28.4.53.4h.08c.13-.02.24-.08.32-.16.37,3.01.51,6.06.43,9.05h-.01Zm-.62,6.88c-.05-.11-.13-.2-.24-.24-.19-.08-.42-.04-.56.11l-.05.08c-.27.86-.58,1.73-.93,2.56-.78,1.89-1.78,3.72-2.97,5.45-3.74.51-7.74.89-11.88,1.13l2.06-4.54-4.01,4.64c-2.01.09-4,.16-5.95.19l-2.07-15.87h27.2c-.08,2.23-.27,4.41-.6,6.51v-.02Zm-9.14,18.85c-5.76,1.08-11.92,1.62-18.31,1.63v-10.73c.87,0,1.74,0,2.6-.02l.82,6.31,5.63-6.51h.16c.34-.02.68-.04,1.02-.06l-4.42,9.76.83.18h.04c1.44-.38,2.87-.87,4.26-1.48,4.99-2.17,9.02-5.42,11.98-9.66.89-.12,1.79-.26,2.74-.41-1.68,4.39-4.17,7.87-7.35,10.97,0,0,0,.02,0,.02Zm-36.9.1c-3.16-3.1-5.63-6.58-7.32-10.97.96.15,1.87.28,2.76.4.91,1.26,1.91,2.44,2.98,3.51,3.71,3.72,8.15,6.24,13.19,7.49h.07l.62-.13-4.26-9.76c.29.01.58.03.87.04h.25l5.4,6.52.89-6.32c.92.01,1.85.02,2.79.02v10.73c-6.4-.01-12.53-.52-18.22-1.53,0,0-.02,0-.02,0Zm-9.77-25.47h27.1l-2.22,15.87c-1.92-.03-3.86-.09-5.78-.17l-3.89-4.69,2.01,4.6c-4.14-.22-8.11-.58-11.8-1.06-1.72-2.42-3.04-5.09-3.91-7.94l-.18.05.17-.07c-.08-.25-.31-.39-.56-.35-.15.02-.27.11-.34.23-.33-2.08-.52-4.25-.59-6.46h-.01Zm.41-9.4c.08.07.18.13.3.14h.07c.25,0,.46-.16.53-.4l-.18-.05.19.03c.5-1.7,1.14-3.34,1.9-4.89,4.69-.66,9.9-1.12,15.48-1.37.54,1.03,1.21,1.94,2,2.71,2.03,1.96,4.65,2.95,7.28,2.99v3.96l-.83,5.91h-27.16c-.08-2.98.06-6.03.42-9.03Zm7.2-19.35l.71-.23h.03l.66-.12c-5.37,5.47-7.45,11.86-8.13,14.52h0c-4.87.79-8.83,1.74-12.04,2.8.94-2.15,2.92-6.1,5.84-9.1,2.82-2.89,6.79-5.46,11.17-7.24.62-.25,1.27-.47,1.76-.63Zm26.61-.64c4.57,3.26,4.99,9.01,3.05,13.07-2.7-.11-5.5-.17-8.31-.18h-.14c.04-.08.07-.16.09-.26.33-2.3,2.16-4.15,4.47-4.48.37-.05.63-.35.63-.73s-.26-.67-.63-.72c-2.3-.33-4.15-2.16-4.48-4.47-.04-.3-.26-.52-.54-.59v-2.92c2.15.04,4.17.47,5.87,1.27h0Zm3.46,13.09c1.82-3.97,1.49-9.42-2.51-12.83h0c.64.17,1.31.35,1.94.58,7.09,2.58,12.38,7.13,15.73,13.55-4.61-.63-9.71-1.08-15.17-1.31h0Zm-9.7,16.3v15.88c-.91,0-1.83.01-2.73,0l2.22-15.88h.51Zm-.45-.37l.45-3.23v3.23h-.45Zm.83.37h.48l2.07,15.88c-.85.01-1.7,0-2.55,0v-15.88Zm0-.37v-3.35l.44,3.35h-.44Zm0-16.19v-10.8c.08.05.15.12.17.25.36,2.46,2.33,4.43,4.8,4.78.23.03.31.21.31.36,0,.14-.08.32-.31.36-2.46.36-4.43,2.33-4.78,4.8-.02.14-.1.21-.19.26h0Zm-.37,0c-.07-.05-.14-.12-.15-.24-.36-2.46-2.33-4.43-4.8-4.78-.23-.03-.31-.21-.31-.36,0-.14.08-.32.31-.36,2.46-.36,4.43-2.33,4.78-4.8.02-.13.09-.2.17-.25v10.78h0Zm0,.44v5.53c-2.54-.03-5.06-1-7.02-2.89-.73-.7-1.35-1.53-1.86-2.46,2.74-.11,5.57-.18,8.41-.18h.47Zm.37,0h.61c2.75,0,5.49.07,8.13.18-.53,1.01-1.18,1.88-1.94,2.59-1.92,1.79-4.35,2.7-6.8,2.75,0,0,0-5.52,0-5.52Zm-.37-14.55v2.93c-.28.07-.49.29-.54.6-.33,2.3-2.16,4.15-4.47,4.48-.37.05-.63.35-.63.73s.26.67.63.72c2.3.33,4.15,2.16,4.48,4.47,0,.09.04.18.08.25h-.03c-2.91,0-5.8.07-8.6.19-1.88-3.79-1.71-9.27,2.9-13.09h0c1.77-.82,3.89-1.27,6.14-1.28,0,0,.04,0,.04,0Zm-9.48,14.39c-5.43.24-10.5.69-15.08,1.33,3.06-6.04,8-10.48,14.71-13.2.81-.33,1.67-.6,2.49-.86.11-.03.21-.07.32-.1-4.08,3.86-4.21,9.1-2.43,12.83h-.01Zm3.55-13.59l-.38.13c-.39.13-.78.25-1.17.37-.83.26-1.7.53-2.52.87-6.87,2.79-11.92,7.37-15.01,13.61-.57.08-1.13.17-1.68.25.72-2.77,2.88-9.17,8.36-14.56h0c4.58-.78,9.48-1.24,14.6-1.4-.77.18-1.51.43-2.2.72h0Zm-20.86,15.62c.52-.08,1.05-.16,1.58-.24-.72,1.5-1.32,3.09-1.8,4.72v.02c-.05.14-.17.14-.21.13-.03,0-.16-.03-.16-.18-.04-1.16.17-2.74.59-4.45Zm20.36,39.77l-.11.03c-4.96-1.24-9.33-3.72-12.99-7.39-.98-.98-1.89-2.05-2.73-3.18,3.66.47,7.59.81,11.68,1.03l4.16,9.52h-.01Zm-4.94-12.23l1.99,2.4c-.32-.01-.64-.03-.96-.04,0,0-1.03-2.36-1.03-2.36Zm2.81,2.81c1.79.08,3.61.13,5.4.16l-.76,5.44s-4.64-5.6-4.64-5.6Zm-18.54-9.35c0-.1.08-.12.11-.13.03,0,.12,0,.15.09v.02c.85,2.78,2.12,5.39,3.77,7.76-.86-.12-1.75-.24-2.68-.39-1.1-3.11-1.34-5.71-1.35-7.36h0Zm38.13,9.24h0c4.1-.23,8.05-.6,11.77-1.1-2.9,4.05-6.81,7.16-11.63,9.25-1.35.59-2.75,1.07-4.16,1.43l-.29-.07,4.31-9.52h0Zm-.25-.36c-.34.02-.68.03-1.02.05l2.1-2.43s-1.08,2.38-1.08,2.38Zm-1.87.46l-4.85,5.61-.71-5.44c1.82-.03,3.69-.09,5.56-.17h0Zm17.29-2.09c-.91.15-1.77.28-2.62.4,1.12-1.66,2.07-3.42,2.82-5.24.34-.83.65-1.68.92-2.54.04-.02.09-.02.12,0,.05.02.07.06.07.12,0,1.62-.24,4.19-1.31,7.26Zm1.6-23.81c0,.15-.14.18-.16.18-.03,0-.16,0-.21-.15-.11-.37-.21-.69-.31-.97-.27-.8-.58-1.6-.92-2.37h0c-.2-.47-.43-.91-.65-1.34l-.03-.05c.57.08,1.13.17,1.69.25.42,1.72.63,3.29.59,4.45Zm-.69-4.84c-.59-.09-1.19-.18-1.8-.27-3.39-6.63-8.79-11.33-16.05-13.97-.65-.23-1.32-.42-1.97-.59-.31-.08-.61-.16-.91-.25h0c-.79-.38-1.66-.66-2.57-.88,5.25.15,10.28.61,14.97,1.4,5.48,5.39,7.63,11.79,8.35,14.56h-.02Zm-26.75-16.4v-7.27c2.38,0,4.75.12,7.08.35,4.08,2.5,7.84,5.19,11,8.34-5.62-.93-11.69-1.41-18.08-1.42Zm0-7.64v-3.37c2.17,1.2,4.29,2.41,6.36,3.65-2.1-.18-4.22-.28-6.36-.29h0Zm-.37,0c-2.13,0-4.25.11-6.34.29,2.06-1.24,4.18-2.45,6.34-3.64,0,0,0,3.35,0,3.35Zm0,.37v7.27h-.02c-6.37,0-12.43.49-18.04,1.42,3.15-3.15,6.91-5.83,10.97-8.32,2.32-.23,4.69-.36,7.08-.37h0Zm-28.35,38.32c.1,2.99.42,5.91.97,8.65h.02c.15,1.48.49,3.32,1.2,5.38-4.61-.74-8.69-1.67-12.14-2.78-.13-.12-.29-.18-.46-.16-.12-.04-.23-.08-.35-.12-.43-1.15-.83-2.33-1.14-3.54-.63-2.39-.96-4.82-1.01-7.43h12.91Zm9.26,25.3h-.05c-.18-.06-.36-.11-.53-.16-.51-.14-.89-.26-1.25-.39-3.7-1.34-7.43-3.46-10.52-5.95l-.07-.06c-2.74-2.23-4.95-4.95-6.41-6.98,3.41,1.06,7.4,1.96,11.89,2.67h.07c1.64,4.37,4.04,7.84,7.1,10.92l-.23-.04h0Zm19.1,2.06v7.03c-2.3,0-4.58-.12-6.83-.33-4.21-2.68-7.88-5.25-10.94-8.15,5.56.95,11.53,1.44,17.77,1.46h0Zm0,7.4v3.53l-.72-.44c-1.9-1.16-3.7-2.27-5.43-3.37,2.03.18,4.09.27,6.16.28h0Zm.37,3.44v-3.44c2.01,0,4.01-.1,5.99-.26-1.6,1.01-3.28,2.03-5.03,3.11,0,0-.96.59-.96.59Zm0-3.81v-7.03c6.22,0,12.22-.54,17.85-1.55-3.11,2.93-6.88,5.54-11.19,8.27-2.2.2-4.42.31-6.67.31h0Zm26.1-20.07h.01c4.54-.75,8.55-1.68,11.98-2.77-1.48,2.08-3.75,4.92-6.54,7.18-3.1,2.52-6.86,4.65-10.59,6.01-.23.08-.46.15-.69.22l-.13.04-1.19.24c3.08-3.08,5.5-6.56,7.14-10.92,0,0,.01,0,.01,0Zm.15-.41c.69-2.02,1.02-3.83,1.17-5.28h.04c.55-2.72.87-5.65.97-8.64h12.87c-.06,2.61-.38,5.04-1.01,7.43-.3,1.15-.67,2.27-1.08,3.36-3.63,1.24-7.97,2.3-12.97,3.13h.01Zm-19.06-52.26c-1.79-1.1-3.64-2.16-5.52-3.21,3.38,1.26,6.59,2.49,9.62,3.74-1.36-.21-2.72-.39-4.11-.53h.01Zm-14.76.02c-1.38.14-2.76.31-4.11.53,3.03-1.25,6.24-2.47,9.62-3.73-1.87,1.05-3.72,2.11-5.5,3.2h0Zm-.73.45c-4,2.49-7.69,5.18-10.77,8.34h0l-1.03.18c-4.51.84-8.62,1.98-12.3,3.39,4.96-4.47,11.42-7.92,19.13-11.17,1.63-.3,3.29-.55,4.98-.74h-.01Zm-24.92,12.14h0c-.06.05-.11.11-.16.16-1.09.44-2.15.91-3.16,1.4l-.21.07c-.12.04-.24.08-.36.13-3.99,1.62-7.23,3.72-9.38,6.09-1.04,1.14-1.95,2.39-2.75,3.76,5.57-10.91,18.44-19.34,34.2-22.66-7.32,3.19-13.46,6.62-18.18,11.05ZM.44,58.32c.41-4.67,5.35-7.87,11.19-10.04-.63,3.19-1.16,6.72-1.11,10.48H.41l.03-.44Zm10.09.81c.06,2.43.36,4.95,1.04,7.52.3,1.12.66,2.22,1.05,3.29-6.67-2.34-10.8-5.37-11.94-8.78l-.25-2.04h10.11-.01Zm2.25,11.26c.06.15.11.3.16.45h0s0,.09.03.13c.93,2.43,2.66,5.99,5.62,9.13l.06.06c-.54-.23-1.08-.47-1.6-.72l-.16-.05c-.1-.03-.2-.06-.3-.1-2.55-.93-6.14-2.54-8.76-4.97-2.32-2.15-4.19-4.82-5.53-7.92-.5-1.15-.9-2.35-1.22-3.56,1.79,2.96,5.72,5.49,11.71,7.55h-.01Zm-5.21,4.21c2.67,2.47,6.31,4.11,8.89,5.05.11.04.21.07.32.1l.13.04c.78.37,1.59.72,2.42,1.06l.06.06c4.87,4.39,11.43,7.83,19.42,11.35-7.57-1.43-14.63-4.05-20.62-7.71-6.57-4.02-11.55-9.1-14.55-14.73,1.11,1.79,2.42,3.39,3.92,4.79h.01Zm12.83,6.69c3.78,1.47,8,2.65,12.61,3.51l.77.14c3,2.92,6.6,5.5,10.73,8.16-1.39-.15-2.77-.33-4.13-.56-8.19-3.54-14.94-6.96-19.98-11.25Zm24.82,12.26c1.57,1,3.22,2.02,4.93,3.07-2.94-1.21-5.75-2.36-8.42-3.5,1.15.17,2.31.32,3.48.43h0Zm14.12.02c1.48-.14,2.95-.32,4.4-.55-3.06,1.29-6.32,2.58-9.77,3.88,1.88-1.15,3.67-2.25,5.37-3.33Zm.7-.44c4.25-2.72,7.95-5.33,11.01-8.3l1.73-.34c4.47-.94,8.59-2.22,12.3-3.77-4.91,4.4-11.6,8.09-19.89,11.68-1.7.3-3.41.54-5.15.72h0Zm26.04-12.81c.05-.02.11-.04.17-.07l.44-.12c.19-.05.38-.1.57-.16.43-.12.76-.22,1.06-.33,2.58-.94,6.22-2.57,8.89-5.05,1.81-1.67,3.34-3.65,4.57-5.9-2.78,5.81-7.65,11.08-14.25,15.3-5.99,3.83-13.1,6.59-20.76,8.12,8.09-3.59,14.59-7.33,19.32-11.8h0Zm10.87-6c-2.63,2.43-6.21,4.04-8.76,4.97-.29.11-.61.21-1.03.33-.18.05-.37.1-.55.15,2.13-2.36,3.83-5.25,5.2-8.83.02-.05.02-.1.03-.16.08-.19.14-.39.21-.58,5.87-2.04,9.86-4.57,11.68-7.48-.32,1.23-.72,2.46-1.25,3.67-1.35,3.1-3.21,5.77-5.53,7.92h0Zm7.25-13.57v.06c-.03.13-.07.26-.09.39-1.26,3.35-5.37,6.27-11.89,8.57.37-1.01.71-2.05.99-3.12.68-2.58.98-5.1,1.04-7.52h10.09l-.08,1.24c-.01.12-.03.23-.05.35v.03h-.01Zm-9.96-1.99c.05-3.77-.48-7.31-1.11-10.51,5.74,2.12,10.63,5.23,11.22,9.77.02.14.02.3.01.47v.26h-10.12Zm-1.21-10.98l-.26-1.14h0c-.42-2.93-1.83-8-6.48-12.3l-.1-.11h0s-.04-.04-.06-.06l-.04-.04h0s-.02,0-.03-.02c.96.4,1.89.81,2.78,1.25.11.04.22.09.32.14l.32.16c3.44,1.73,6.69,3.36,8.93,5.84,2.31,2.55,4.03,5.68,5.11,9.32.23.77.44,1.59.6,2.42.04.29.09.59.12.88.01.1.02.2.03.3,0,.08.01.16.02.21l.02,1.75c-1.24-3.46-5.07-6.36-11.3-8.61h.02Zm-5.21-20.05c6.85,4.94,11.78,11.14,14.4,17.96-2.79-5.96-7.74-11.35-14.48-15.67-6.39-4.09-14.04-6.95-22.27-8.43-3.68-1.55-7.64-3.07-11.84-4.63,12.74.23,24.84,4.03,34.19,10.76h0Zm-70.58-.23c9.29-6.58,21.27-10.3,33.86-10.54-4.24,1.57-8.22,3.09-11.92,4.66-7.8,1.42-15.1,4.09-21.27,7.86-7.28,4.45-12.61,10.18-15.51,16.52,2.62-7.05,7.71-13.45,14.83-18.5h0ZM2.16,67.53c2.8,6.67,8.27,12.7,15.84,17.33,6.43,3.93,14.09,6.67,22.27,8.03,3.31,1.43,6.84,2.88,10.6,4.42l.35.14c-12.67-.22-24.72-3.98-34.05-10.65-7.34-5.25-12.49-11.93-15.01-19.28h0Zm85.65,19.17c-9.37,6.75-21.5,10.55-34.26,10.76,4.21-1.58,8.13-3.13,11.75-4.69,8.29-1.47,16-4.35,22.43-8.46,7.06-4.51,12.15-10.22,14.86-16.51-2.53,7.19-7.6,13.73-14.78,18.9Z" style="fill: #fff;"/>
            </g>
          </g>
          <g>
            <g>
              <path d="m32.97,4.93l-.38.67c-.27-.23-.54-.39-.82-.48s-.55-.09-.81-.03c-.45.12-.78.38-.99.79s-.24.88-.1,1.41c.16.62.48,1.11.96,1.45s.98.45,1.49.31c.25-.07.49-.19.72-.37s.42-.39.57-.65l.27.18c-.16.38-.38.7-.67.96-.29.26-.63.44-1.03.54-.67.17-1.26.09-1.79-.24-.52-.33-.88-.87-1.07-1.59-.19-.74-.12-1.43.22-2.07s.84-1.04,1.51-1.21c.33-.09.65-.1.96-.05.31.05.62.17.94.37h.02Z" style="fill: #fff;"/>
              <path d="m36.41,3.43c.74-.14,1.4,0,1.98.38.58.38.94.96,1.08,1.71.14.74,0,1.4-.39,1.98-.4.58-.97.93-1.7,1.07-.74.14-1.4.01-1.98-.38-.58-.39-.94-.96-1.07-1.71s0-1.4.39-1.98c.4-.58.96-.93,1.7-1.07,0,0,0,0-.01,0Zm.02.37c-.52.1-.9.36-1.14.78-.24.43-.3.95-.19,1.57.13.68.41,1.21.84,1.6.43.39.92.54,1.44.44.51-.1.88-.35,1.12-.78.24-.42.3-.95.18-1.57-.13-.67-.41-1.21-.84-1.6-.44-.39-.91-.54-1.41-.45h0Z" style="fill: #fff;"/>
              <path d="m44.76,3.75l.36,3.21.56-.06.04.38-1.86.21-.04-.38.56-.06-.36-3.2c-.03-.28-.14-.49-.32-.62s-.42-.18-.73-.14c-.24.03-.49.12-.75.27s-.49.35-.71.6l.38,3.37.56-.06.04.38-1.86.21-.04-.38.56-.06-.45-4.01-.54.24-.04-.39,1.17-.54h.06l.11.78c.32-.32.62-.57.9-.74s.55-.27.8-.3c.43-.05.79.05,1.08.28.29.24.46.58.51,1.02h0Z" style="fill: #fff;"/>
              <path d="m47.26,1.22l.21.05.06,1.01,1.07-.06v.13c0,.13-.02.22-.08.28s-.16.1-.29.11l-.69.04.19,3.29c.02.26.07.45.15.56s.21.17.38.16c.09,0,.18-.03.27-.06s.19-.1.31-.19l.17.25c-.17.16-.35.28-.55.38s-.4.15-.59.16c-.29.02-.51-.05-.65-.21-.14-.15-.21-.43-.24-.83l-.2-3.46-.6.03v-.25c.25-.18.47-.38.64-.61.17-.23.31-.49.41-.78,0,0,.03,0,.03,0Z" style="fill: #fff;"/>
              <path d="m52.63,1.94l.29.14-.61,1.03c-.14-.14-.27-.24-.39-.3s-.24-.09-.37-.09c-.21,0-.38.09-.5.25s-.17.39-.17.69l.05,3.01h.66v.37l-1.97.03v-.38h.56l-.06-3.39c0-.16-.02-.26-.05-.32-.03-.05-.09-.1-.18-.14l-.24.31-.31-.2.65-.96c.23.12.41.24.53.36s.21.26.26.42c.12-.29.25-.5.38-.62s.29-.19.46-.19c.11,0,.23.02.35.06s.26.11.41.21l.21-.28h.04Z" style="fill: #fff;"/>
              <path d="m54.86,1.99h.04v.12c-.03.23-.04.39-.04.48l-.09,4.1h.57v.39l-1.87-.04v-.38h.58l.09-4.02-.57.17v-.39l1.33-.43s-.04,0-.04,0Zm-.38-1.65c.15,0,.27.06.37.16.1.1.15.23.14.38,0,.14-.06.26-.16.36s-.23.14-.38.14c-.14,0-.25-.06-.35-.16-.1-.11-.15-.23-.15-.36,0-.14.06-.27.16-.37.1-.1.22-.15.36-.15,0,0,0,0,.01,0Z" style="fill: #fff;"/>
              <path d="m58.27,0l-.03.39-.53.15-.15,2.16c.32-.18.61-.31.88-.39.27-.08.52-.11.76-.09.56.04,1.02.29,1.36.76s.49,1.05.44,1.74c-.06.8-.35,1.46-.88,1.97-.53.51-1.15.75-1.85.7-.33-.02-.65-.11-.96-.26s-.57-.34-.76-.58l.41-5.79-.58.15.03-.39,1.86-.52Zm-.9,5.39c-.04.54.03.93.19,1.19.17.26.45.4.85.43.48.03.89-.14,1.22-.53.33-.38.52-.91.57-1.57.04-.6-.07-1.11-.34-1.53-.27-.41-.63-.64-1.08-.67-.21,0-.41,0-.61.08s-.41.18-.64.34c0,0-.16,2.26-.16,2.26Z" style="fill: #fff;"/>
              <path d="m63.42,2.67h.08l-.51,3.67c-.04.28,0,.51.15.68.14.17.36.28.67.32.24.03.51,0,.79-.08s.56-.22.83-.4l.45-3.22-.57.1.05-.38,1.27-.23h.08l-.64,4.62.55.08-.05.37-1.29-.18.1-.69c-.39.23-.74.4-1.05.49-.32.1-.6.13-.85.09-.42-.06-.75-.24-.97-.55-.22-.3-.3-.68-.24-1.12l.43-3.04-.58.1.05-.38,1.27-.23s-.02-.02-.02-.02Z" style="fill: #fff;"/>
              <path d="m69.61,2.72l.19.1-.2,1,1.05.21v.05s0,.04-.01.08c-.02.12-.07.21-.15.25-.07.05-.18.06-.31.03l-.68-.13-.64,3.23c-.05.26-.05.45,0,.58s.16.21.33.25c.09.02.18.02.28,0,.1-.01.21-.05.35-.11l.11.28c-.2.11-.41.19-.63.23-.22.04-.42.04-.62,0-.29-.06-.48-.18-.57-.36s-.1-.47-.02-.87l.67-3.4-.59-.12.05-.25c.3-.1.56-.25.79-.42.23-.18.42-.39.59-.65v.02h0Z" style="fill: #fff;"/>
              <path d="m74.91,6.93l-3.28.07c-.03.53.08.97.32,1.33.24.35.59.59,1.06.71.28.07.57.08.86.04s.58-.14.86-.3l.17.31c-.38.28-.78.47-1.18.56s-.81.09-1.22-.02c-.64-.16-1.11-.53-1.4-1.1s-.35-1.22-.16-1.94c.18-.74.57-1.29,1.14-1.67.58-.38,1.2-.49,1.86-.32.29.07.54.2.77.39.23.19.41.43.54.71.1.21.16.43.2.66s.04.41.02.51c-.01.05-.1.06-.27.05h-.29,0Zm-.16-.37c-.04-.45-.15-.81-.33-1.09s-.42-.45-.74-.53c-.45-.11-.86-.04-1.23.22s-.62.66-.75,1.19c0,.03-.01.07-.02.11,0,.05-.01.1-.02.17l3.09-.08h0Z" style="fill: #fff;"/>
              <path d="m79.6,6.71l-.49.4c-.16-.25-.32-.45-.49-.61-.17-.15-.33-.26-.51-.31-.21-.07-.4-.06-.57.02s-.29.21-.35.4c-.09.29.12.66.64,1.11.14.12.24.22.32.28.34.32.56.61.66.87.09.26.09.55,0,.87-.13.41-.41.72-.85.94-.44.22-.9.25-1.37.1-.29-.09-.56-.25-.79-.46s-.42-.47-.56-.77l.68-.42c.2.38.39.67.58.88s.39.35.6.41c.23.07.45.06.65-.05.2-.11.34-.28.41-.52.07-.21.06-.42-.02-.6s-.3-.45-.65-.77c0,0-.01,0-.02-.02-.74-.67-1.02-1.27-.86-1.79.11-.36.34-.61.68-.76.34-.15.72-.16,1.12-.04.23.07.44.18.64.31.2.14.38.31.56.52h-.01Z" style="fill: #fff;"/>
            </g>
            <g>
              <path d="m31.76,104.76c0,.15-.01.29-.01.43s.01.27.03.4l.57,4.02,1.34-1.73-.3-2.03-.54.08-.04-.35,1.22-.27c0,.12.03.24.04.37s.04.27.07.44c.39-.19.71-.31.95-.37.24-.05.46-.06.65,0,.17.04.39.14.68.29.29.16.5.25.64.28.12.03.23.04.33.03.11,0,.22-.04.33-.08l.15.26c-.12.11-.27.28-.43.51-.03.04-.05.07-.06.08l-2.12,2.99c-.06.09-.13.18-.19.29-.06.1-.13.22-.2.36l-.79-.2v-.28c0-.1-.03-.25-.06-.44l-.25-1.47-.9,1.16c-.04.05-.09.13-.15.23-.06.1-.14.24-.24.41l-.78-.19v-.29c0-.1-.03-.25-.06-.44l-.64-3.99-.54.08-.04-.35,1.35-.23h-.01Zm5.33,2.16h-.2c-.07,0-.12-.01-.19-.03-.15-.04-.38-.14-.69-.32-.31-.17-.54-.28-.7-.32-.17-.04-.35-.04-.53,0s-.39.12-.61.23l.55,3.71,2.36-3.28h0Z" style="fill: #fff;"/>
              <path d="m41.15,106.76c.74.11,1.32.45,1.74,1.01.42.56.57,1.22.45,1.97-.11.75-.45,1.33-1.02,1.74-.57.41-1.22.56-1.96.45-.74-.11-1.32-.45-1.74-1.01-.42-.56-.57-1.22-.45-1.96.11-.75.45-1.33,1.02-1.74s1.22-.56,1.96-.45h0Zm-.11.35c-.52-.08-.97.04-1.33.37-.37.32-.6.8-.69,1.42-.1.68,0,1.28.27,1.79s.69.81,1.21.89c.51.08.95-.04,1.31-.37.36-.32.59-.8.69-1.42.1-.68,0-1.27-.27-1.79-.28-.52-.68-.81-1.18-.89h0Z" style="fill: #fff;"/>
              <path d="m47.66,107.49l.27.17-.71.96c-.13-.15-.25-.26-.36-.34s-.23-.12-.36-.13c-.21-.02-.39.05-.52.2-.13.15-.21.37-.24.67l-.26,3,.66.06-.03.38-1.96-.17.03-.38.57.05.29-3.37c0-.16,0-.26-.02-.32-.03-.06-.08-.11-.16-.16l-.27.28-.29-.24.75-.89c.22.15.38.28.49.42.11.13.18.28.21.45.15-.28.3-.47.44-.58s.31-.16.48-.14c.11,0,.22.04.35.1.12.06.25.14.39.25l.24-.26h.01Z" style="fill: #fff;"/>
              <path d="m50.28,105.47l-.02.39-.51.17-.29,6.25.56.03-.02.38-1.86-.08.02-.38.56.02.27-5.98-.56.16.02-.39s1.83-.57,1.83-.57Z" style="fill: #fff;"/>
              <path d="m56,105.48v.39l-.51.2.08,6.26h.57v.37l-1.24.02-.08-.59c-.27.25-.54.44-.81.56-.28.13-.55.19-.83.19-.61,0-1.11-.22-1.5-.68s-.6-1.06-.61-1.8c0-.77.21-1.42.66-1.95s.99-.8,1.61-.8c.25,0,.5.04.74.12s.47.21.69.38l-.02-1.8-.56.2v-.39l1.81-.67h0Zm-1.21,3.89c0-.43-.13-.76-.37-1-.24-.24-.57-.36-.98-.35-.47,0-.85.21-1.16.6-.31.4-.46.89-.45,1.49,0,.64.17,1.18.49,1.62.32.43.71.65,1.17.64.23,0,.46-.07.7-.21.23-.13.44-.32.62-.55l-.03-2.24h0Z" style="fill: #fff;"/>
              <path d="m57.56,107.56c.04.14.09.28.13.41.05.13.1.25.16.36l1.86,3.61.7-2.08-.96-1.82-.48.26-.15-.31,1.06-.65c.05.11.1.22.16.33.06.12.13.25.21.39.31-.31.57-.53.78-.66.21-.13.41-.21.61-.22.17-.02.42,0,.74.05.33.05.56.07.69.06.12-.01.23-.04.33-.08.1-.04.19-.11.28-.19l.23.2c-.08.14-.16.35-.24.63,0,.04-.02.08-.03.1l-1.01,3.52c-.03.1-.06.21-.08.33s-.04.25-.06.41l-.81.08c-.03-.08-.06-.17-.1-.26s-.11-.23-.2-.4l-.72-1.31-.47,1.39c-.02.06-.04.15-.07.27-.02.12-.05.27-.09.47l-.8.08c-.03-.09-.06-.17-.11-.27l-.2-.4-1.92-3.56-.48.26-.16-.31,1.2-.67v-.02Zm5.74.28c-.06.03-.12.05-.18.07s-.12.03-.19.04c-.15.01-.4,0-.75-.07s-.61-.09-.77-.07c-.17.02-.34.07-.5.17s-.33.24-.49.42l1.75,3.32,1.14-3.88h0Z" style="fill: #fff;"/>
              <path d="m65.91,106.56h.04v.12c.02.23.03.39.05.48l.66,4.05.56-.09.06.37-1.85.3-.06-.37.56-.09-.65-3.98-.53.27-.06-.38,1.21-.67h0Zm-.68-1.56c.14-.02.28,0,.39.09.12.08.19.2.21.34s0,.27-.09.38c-.08.11-.2.18-.34.21-.13.02-.26,0-.38-.1-.12-.09-.19-.19-.21-.33s0-.27.09-.39c.08-.12.19-.19.33-.21h0Z" style="fill: #fff;"/>
              <path d="m71.68,103.19l.08.38-.46.3,1.37,6.11.55-.12.08.37-1.21.27-.2-.56c-.21.3-.44.54-.68.72s-.5.3-.78.36c-.59.13-1.13.01-1.61-.35-.48-.37-.8-.91-.96-1.63-.17-.75-.09-1.44.24-2.05.33-.61.8-.98,1.41-1.12.25-.06.5-.07.75-.04s.5.11.76.22l-.39-1.75-.51.31-.09-.38,1.64-1.03h0Zm-.38,4.05c-.09-.42-.28-.72-.57-.91-.28-.19-.63-.23-1.03-.14-.46.1-.79.38-1.01.83s-.26.97-.13,1.55c.14.63.41,1.12.81,1.48.4.36.83.49,1.28.39.23-.05.44-.17.64-.34.2-.18.37-.4.49-.67l-.49-2.18h.01Z" style="fill: #fff;"/>
              <path d="m77.31,105.83l-2.77,1.75c.25.47.57.79.96.97s.81.2,1.28.06c.28-.08.53-.22.75-.41.23-.19.42-.42.58-.7l.3.17c-.18.44-.42.8-.72,1.09s-.65.49-1.06.62c-.63.19-1.22.12-1.76-.22-.54-.34-.93-.86-1.14-1.58-.22-.73-.18-1.4.11-2.02s.77-1.04,1.43-1.23c.28-.09.57-.11.87-.06s.57.16.82.33c.19.13.36.28.52.46.16.18.25.33.28.43.01.05-.05.11-.21.19-.1.06-.18.1-.24.14h0Zm-.32-.23c-.27-.36-.54-.62-.84-.76s-.6-.17-.9-.07c-.45.14-.76.41-.94.82-.18.41-.19.88-.03,1.41,0,.03.02.07.04.11.02.04.04.09.07.15l2.61-1.66h-.01Z" style="fill: #fff;"/>
            </g>
          </g>
        </g>
      </g>
    </g>
  </g>
</svg>