<?xml version="1.0" encoding="UTF-8"?>
<svg id="Calque_2" data-name="Calque 2" xmlns="http://www.w3.org/2000/svg" viewBox="0 0 31.15 8.5">
  <g id="Calque_2-2" data-name="Calque 2">
    <g id="Calque_1-2" data-name="Calque 1-2">
      <g>
        <g>
          <path d="m1.28,7.36c.56.56,1.23.95,2,1.14h.07l-.91-2.09,1.27,1.53.61-4.39.57,4.39,1.33-1.53-.94,2.07.09.02c.22-.06.44-.13.65-.22,1.08-.47,1.85-1.25,2.3-2.34.47-1.13.46-2.28-.03-3.4-.51-1.17-1.39-1.97-2.59-2.41C5.56.08,5.41.04,5.26,0c.89.63.8,1.9.15,2.51-.62.58-1.6.58-2.22-.02-.63-.61-.73-1.74.15-2.46v-.03c-.19.06-.38.12-.56.19C1.45.73.58,1.68.18,3.05c-.25.84-.23,1.68.03,2.52.21.69.57,1.28,1.07,1.78h0Z" style="fill: #fff;"/>
          <path d="m5.13,1.45h0c-.37.05-.66.34-.71.71h0c-.01.1-.15.1-.17,0h0c-.05-.37-.34-.66-.71-.71h0c-.1,0-.1-.15,0-.17h0c.37-.05.66-.34.71-.71h0c.01-.1.15-.1.17,0h0c.05.37.34.66.71.71h0c.1,0,.1.15,0,.17Z" style="fill: #fff;"/>
        </g>
        <g>
          <g>
            <path d="m26.29,5.98s-.03.07-.07.07h-2.16s-.07-.03-.07-.07v-2.66s.03-.07.07-.07h.43s.07.03.07.07v2.15s.03.07.07.07h1.02s.07-.03.07-.07v-2.15s.03-.07.07-.07h.42s.07.03.07.07v2.66h.01Z" style="fill: #fff;"/>
            <path d="m27.05,5.1s.06.02.07.05c.08.29.26.47.63.49.18,0,.36,0,.51-.11.06-.04.12-.1.16-.17.09-.17.01-.36-.18-.42-.17-.05-.35-.07-.52-.09-.2-.03-.4-.05-.6-.09-.43-.1-.54-.41-.46-.8.06-.32.27-.54.57-.65.4-.15.8-.14,1.19.06.29.15.44.44.5.75,0,.04-.03.09-.07.09h-.37s-.06-.02-.07-.05-.03-.08-.06-.13c-.03-.06-.06-.11-.1-.16-.22-.23-.74-.26-.97-.04-.05.05-.09.12-.11.19-.04.16.02.27.18.31.13.03.26.04.39.06.22.03.45.05.66.11.61.18.76.85.3,1.3-.18.17-.4.27-.64.3-.42.06-.83,0-1.16-.29-.18-.16-.26-.39-.3-.62,0-.04.03-.08.07-.08h.38Z" style="fill: #fff;"/>
            <path d="m31.15,4.45c-.02.41-.08.84-.29,1.2-.2.34-.55.51-.9.44-.25-.05-.4-.2-.46-.45-.02-.09-.03-.19-.03-.29v-1.52s-.03-.07-.07-.07h-.34s-.07-.03-.07-.07v-.37s.03-.07.07-.07h.33s.07-.03.07-.07v-.61s.03-.07.07-.07h.42s.07.03.07.07v.61s.03.07.07.07h.59s.07.03.07.07v.38s-.03.07-.07.07h-.59s-.07.03-.07.07v1.43c0,.32.23.46.53.33.16-.07.26-.2.34-.35.12-.22.17-.46.2-.71v-.09h.06Z" style="fill: #fff;"/>
            <path d="m20.7,4.67v1.31s.03.07.07.07h.59c.32,0,.64,0,.95-.04.55-.08.94-.39,1.16-.9.18-.43.2-.88.11-1.33-.14-.72-.64-1.21-1.37-1.27-.46-.04-.98-.02-1.44-.02-.04,0-.07.03-.07.07v2.11Zm2.21.23c-.17.41-.49.61-.93.63-.17.01-.41,0-.59,0-.04,0-.07-.03-.07-.07v-2.4s.03-.07.07-.07c.15,0,.52,0,.68.02.53.08.83.37.92.9.06.33.05.67-.08.98h0Z" style="fill: #fff;"/>
          </g>
          <path d="m18.94,6.82h-.84s-.06,0-.08-.02-.03-.05-.02-.1h0v-.3s0-.06.02-.08.06-.03.08-.03h.5c.06,0,.07,0,.1-.08.06-.21.06-.36,0-.53-.23-.58-.95-2.44-.95-2.44h.51c.07,0,.11.03.14.1.18.52.58,1.58.68,1.87.1-.29.5-1.39.67-1.87.02-.07.06-.1.12-.1h.52s-1.02,2.7-1.31,3.47c-.02.05-.05.11-.14.11h0Z" style="fill: #fff;"/>
          <path d="m17.47,4.65v1.27c0,.09-.05.14-.14.14h-.33c-.06,0-.09-.02-.09-.09v-3.38c0-.08.03-.1.1-.1h.36c.08,0,.1.02.1.1,0,.43,0,1.62,0,2.06Z" style="fill: #fff;"/>
          <path d="m14.26,3.32s.03-.07.07-.07h2.16s.07.03.07.07v2.66s-.03.07-.07.07h-.43s-.07-.03-.07-.07v-2.15s-.03-.07-.07-.07h-1.02s-.07.03-.07.07v2.15s-.03.07-.07.07h-.42s-.07-.03-.07-.07v-2.66h-.01Z" style="fill: #fff;"/>
          <path d="m12.16,6.08c-1,0-1.78-.79-1.77-1.79,0-.99.79-1.77,1.79-1.76.99,0,1.77.78,1.77,1.77s-.78,1.79-1.78,1.78h0Zm-1.17-1.78c0,.69.53,1.21,1.2,1.21s1.17-.56,1.16-1.21c0-.67-.54-1.2-1.19-1.2s-1.18.54-1.18,1.21h.01Z" style="fill: #fff;"/>
        </g>
      </g>
    </g>
  </g>
</svg>