<?xml version="1.0" encoding="UTF-8"?>
<svg xmlns="http://www.w3.org/2000/svg" xmlns:xlink="http://www.w3.org/1999/xlink" viewBox="0 0 1080 1080">
  <defs>
    <style>
      .cls-1 {
        fill: none;
      }

      .cls-2 {
        fill: #89f0a6;
      }

      .cls-3 {
        fill: #d1ebd8;
      }

      .cls-4 {
        fill: #0e5723;
      }

      .cls-5 {
        mix-blend-mode: multiply;
      }

      .cls-6 {
        isolation: isolate;
      }
    </style>
    <clipPath id="clippath">
      <rect class="cls-1" x="-642.29" y="-1235.35" width="416.45" height="416.45" rx="-201.22" ry="-201.22"/>
    </clipPath>
    <filter id="drop-shadow-1" filterUnits="userSpaceOnUse">
      <feOffset dx="-11.41" dy="34.23"/>
      <feGaussianBlur result="blur" stdDeviation="19.97"/>
      <feFlood flood-color="#8f3416" flood-opacity=".28"/>
      <feComposite in2="blur" operator="in"/>
      <feComposite in="SourceGraphic"/>
    </filter>
  </defs>
  <g class="cls-6">
    <g id="Layer_1" data-name="Layer 1">
      <g>
        <g>
          <path class="cls-3" d="M350.97,298.86h192.51c100.1,0,181.37,81.27,181.37,181.37h0c0,100.1-81.27,181.37-181.37,181.37h-11.13c-100.1,0-181.37-81.27-181.37-181.37v-181.37h0Z"/>
          <path class="cls-4" d="M543.48,673.93h-11.13c-106.81,0-193.7-86.89-193.7-193.7v-193.7h204.83c106.81,0,193.7,86.89,193.7,193.7s-86.89,193.7-193.7,193.7Zm-180.18-362.75v169.05c0,93.21,75.83,169.05,169.05,169.05h11.13c93.21,0,169.05-75.83,169.05-169.05s-75.83-169.05-169.05-169.05h-180.18Z"/>
        </g>
        <g class="cls-5">
          <path class="cls-4" d="M638.86,433.15c-12.2-12.2-28.44-18.93-45.7-18.95h-45.09c-35.59,0-64.56,28.95-64.6,64.54,0,3.23,.22,6.4,.67,9.53,.22,1.4,1.44,2.44,2.85,2.44h14.66c1.79,0,3.15-1.63,2.81-3.39-.53-2.8-.81-5.65-.81-8.56,0-2.26,.18-4.47,.51-6.65,.26-1.61,.59-3.23,1-4.78,2.09-7.79,6.22-14.72,11.81-20.19,1.89-1.87,3.94-3.56,6.14-5.06,7.12-4.84,15.71-7.68,24.94-7.68h.02l45.07,.02c11.87,0,23.03,4.63,31.41,13.03,8.38,8.39,12.99,19.54,12.99,31.41-.02,20.25-13.7,37.91-33.26,42.97-3.29,.85-5.92,3.29-7.03,6.51l-5.94,17.36-11.18-14.54c-3.84-5-9.78-7.93-16.1-7.93h-15.98c-4.13,0-8.17-.55-12.05-1.63-1.36-.39-2.78-.59-4.19-.59h-28.09c-1.77,0-2.68,2.17-1.42,3.42l.04,.04c12.2,12.22,28.42,18.95,45.68,18.95h16.04l17.65,22.97c2.78,3.62,7.05,5.67,11.51,5.67,.77,0,1.57-.06,2.36-.18,5.27-.89,9.64-4.57,11.4-9.64l7.7-22.48c25.59-9.03,43.01-33.32,43.04-60.86,.02-17.28-6.69-33.52-18.89-45.74Z"/>
          <path class="cls-4" d="M532.53,515.95h-52.08c-35.27,0-63.97-28.7-63.97-63.97s28.51-63.56,63.56-63.56h57.46c5.58,0,10.1,4.52,10.1,10.1s-4.52,10.1-10.1,10.1h-57.46c-23.91,0-43.36,19.45-43.36,43.36s19.64,43.78,43.78,43.78h52.08c10.88,0,19.72-8.85,19.72-19.72,0-4.81-3.91-8.72-8.72-8.72h-44.91c-5.58,0-10.1-4.52-10.1-10.1s4.52-10.1,10.1-10.1h44.91c15.94,0,28.91,12.97,28.91,28.91,0,22.01-17.91,39.92-39.92,39.92Z"/>
          <path class="cls-2" d="M516.99,447.12c-5.59,5.47-9.72,12.4-11.81,20.19h-6.55c-5.57,0-10.1-4.53-10.1-10.1s4.53-10.1,10.1-10.1h18.36Z"/>
        </g>
      </g>
      <g>
        <path class="cls-4" d="M303.84,728.2c14.95,0,22.24,9.39,23.89,18.63h-10.14c-1.65-5.18-5.48-9.62-13.6-9.62-10.82,0-16.53,8.04-16.53,18.03s5.41,18.03,16.15,18.03c7.66,0,11.94-4.96,13.52-10.82h-12.85v-8.41h23.44v27.64h-10.52v-3.46c0-1.73,.3-3.3,1.35-5.86,.23-.6,.08-1.05-.38-1.2-.6-.23-.98,.15-1.13,.53-1.58,3.83-6.46,10.59-15.47,10.59-15.25,0-24.34-12.09-24.34-27.04s9.31-27.04,26.59-27.04Z"/>
        <path class="cls-4" d="M346.66,758.32c7.06-.38,13.3,.3,13.22-3.38-.08-2.7-1.13-5.71-7.96-5.71s-8.49,2.78-9.01,6.01h-9.46c1.35-9.99,9.92-13.82,18.78-13.82s17.28,3.01,17.28,18.33v21.93h-9.62v-2.78c0-1.8,.45-3,1.13-4.36,.3-.68,.6-1.43-.08-1.73-.75-.3-1.05,.45-1.2,.83-2.25,5.48-6.61,8.64-13.67,8.64-7.44,0-13.82-4.81-13.82-11.49,0-8.79,6.46-12.02,14.42-12.47Zm1.65,6.38c-4.13,.45-6.46,2.03-6.46,5.56,0,3.3,3.16,5.41,7.59,4.81,5.11-.68,10.37-3.98,10.44-13.82-2.25,2.48-5.86,2.85-11.57,3.46Z"/>
        <path class="cls-4" d="M382.86,768.31c.08,2.93,1.8,6.46,8.79,6.46,6.16,0,8.19-2.1,8.19-4.73,0-2.93-3.91-3.38-11.49-4.28-12.17-1.5-13.75-7.81-13.75-12.25,0-6.46,5.71-12.09,16.98-12.09,10.44,0,16.15,5.56,16.68,12.77h-9.46c-.23-2.48-1.88-5.26-7.44-5.26s-7.14,1.8-7.14,4.06c0,1.88,.83,3.46,8.56,4.21,9.69,.98,16.68,4.13,16.68,12.09s-6.39,13-18.1,13-17.58-5.48-17.95-13.97h9.46Z"/>
        <path class="cls-4" d="M423.58,781.68h-9.62v-54.09h9.62v54.09Z"/>
        <path class="cls-4" d="M465.72,764.26h-28.85c.68,6.01,4.58,9.62,10.59,9.62,4.58,0,6.91-2.48,8.04-6.01h9.77c-1.73,8.19-7.29,14.42-17.88,14.42-12.84,0-19.91-8.64-19.91-20.43,0-12.39,7.66-20.43,19.76-20.43,9.16,0,18.7,5.48,18.7,19.91,0,1.05-.08,1.8-.23,2.93Zm-9.39-6.61c-.38-4.81-3.23-8.41-8.79-8.41-6.54,0-9.31,3.68-10.29,8.41h19.08Z"/>
        <path class="cls-4" d="M478.12,768.31c.08,2.93,1.8,6.46,8.79,6.46,6.16,0,8.19-2.1,8.19-4.73,0-2.93-3.91-3.38-11.49-4.28-12.17-1.5-13.75-7.81-13.75-12.25,0-6.46,5.71-12.09,16.98-12.09,10.44,0,16.15,5.56,16.68,12.77h-9.46c-.23-2.48-1.88-5.26-7.44-5.26s-7.14,1.8-7.14,4.06c0,1.88,.83,3.46,8.56,4.21,9.69,.98,16.68,4.13,16.68,12.09s-6.39,13-18.1,13-17.58-5.48-17.95-13.97h9.46Z"/>
        <path class="cls-4" d="M516.88,768.31c.08,2.93,1.8,6.46,8.79,6.46,6.16,0,8.19-2.1,8.19-4.73,0-2.93-3.91-3.38-11.49-4.28-12.17-1.5-13.75-7.81-13.75-12.25,0-6.46,5.71-12.09,16.98-12.09,10.44,0,16.15,5.56,16.68,12.77h-9.46c-.23-2.48-1.88-5.26-7.44-5.26s-7.14,1.8-7.14,4.06c0,1.88,.83,3.46,8.56,4.21,9.69,.98,16.68,4.13,16.68,12.09s-6.39,13-18.1,13-17.58-5.48-17.95-13.97h9.46Z"/>
        <path class="cls-4" d="M592.3,728.2c14.95,0,22.24,9.39,23.89,18.63h-10.14c-1.65-5.18-5.48-9.62-13.6-9.62-10.82,0-16.53,8.04-16.53,18.03s5.41,18.03,16.15,18.03c7.66,0,11.94-4.96,13.52-10.82h-12.85v-8.41h23.44v27.64h-10.52v-3.46c0-1.73,.3-3.3,1.35-5.86,.23-.6,.08-1.05-.38-1.2-.6-.23-.98,.15-1.13,.53-1.58,3.83-6.46,10.59-15.47,10.59-15.25,0-24.34-12.09-24.34-27.04s9.31-27.04,26.59-27.04Z"/>
        <path class="cls-4" d="M660.36,761.85c0,11.27-7.44,20.43-19.83,20.43s-19.83-9.16-19.83-20.43,7.44-20.43,19.83-20.43,19.83,9.16,19.83,20.43Zm-9.62,0c0-6.46-3.68-11.72-10.22-11.72s-10.22,5.26-10.22,11.72,3.68,11.72,10.22,11.72,10.22-5.26,10.22-11.72Z"/>
        <path class="cls-4" d="M672.53,768.31c.08,2.93,1.8,6.46,8.79,6.46,6.16,0,8.19-2.1,8.19-4.73,0-2.93-3.91-3.38-11.49-4.28-12.17-1.5-13.75-7.81-13.75-12.25,0-6.46,5.71-12.09,16.98-12.09,10.44,0,16.15,5.56,16.68,12.77h-9.46c-.23-2.48-1.88-5.26-7.44-5.26s-7.14,1.8-7.14,4.06c0,1.88,.83,3.46,8.56,4.21,9.69,.98,16.68,4.13,16.68,12.09s-6.39,13-18.1,13-17.58-5.48-17.95-13.97h9.46Z"/>
        <path class="cls-4" d="M711.29,768.31c.08,2.93,1.8,6.46,8.79,6.46,6.16,0,8.19-2.1,8.19-4.73,0-2.93-3.91-3.38-11.49-4.28-12.17-1.5-13.75-7.81-13.75-12.25,0-6.46,5.71-12.09,16.98-12.09,10.44,0,16.15,5.56,16.68,12.77h-9.46c-.23-2.48-1.88-5.26-7.44-5.26s-7.14,1.8-7.14,4.06c0,1.88,.83,3.46,8.56,4.21,9.69,.98,16.68,4.13,16.68,12.09s-6.39,13-18.1,13-17.58-5.48-17.95-13.97h9.46Z"/>
        <path class="cls-4" d="M742.39,727.6h9.62v9.62h-9.62v-9.62Zm9.62,14.42v39.66h-9.62v-39.66h9.62Z"/>
        <path class="cls-4" d="M768.54,742.02v1.5c0,1.58-.38,2.78-1.05,4.13-.3,.75-.83,1.65-.08,2.03s1.2-.6,1.35-.9c2.4-4.21,6.39-7.36,12.54-7.36,10.29,0,17.28,9.02,17.28,20.43s-6.99,20.43-17.28,20.43c-6.01,0-10.14-3.08-12.54-7.44-.15-.22-.45-.98-1.13-.75-.83,.3-.53,1.05-.15,1.8,.68,1.35,1.05,2.55,1.05,4.06v16.15h-9.62v-54.09h9.62Zm20.43,19.83c0-6.31-3.15-11.72-9.92-11.72-6.31,0-10.52,5.41-10.52,11.72s4.21,11.72,10.52,11.72c6.76,0,9.92-5.41,9.92-11.72Z"/>
      </g>
    </g>
  </g>
</svg>