<?xml version="1.0" encoding="UTF-8"?>
<svg xmlns="http://www.w3.org/2000/svg" viewBox="0 0 1080 1080">
  <defs>
    <style>
      .cls-1 {
        fill: #89f0a6;
      }

      .cls-2 {
        fill: #0e5723;
      }

      .cls-3 {
        mix-blend-mode: multiply;
      }

      .cls-4 {
        isolation: isolate;
      }
    </style>
  </defs>
  <g class="cls-4">
    <g id="Layer_1" data-name="Layer 1">
      <g class="cls-3">
        <path class="cls-2" d="M725.23,446.93c-24.12-24.12-56.22-37.43-90.34-37.47h-89.13c-70.34,0-127.61,57.23-127.69,127.57,0,6.38,.43,12.64,1.32,18.83,.43,2.76,2.84,4.82,5.64,4.82h28.99c3.54,0,6.22-3.23,5.56-6.69-1.05-5.53-1.6-11.17-1.6-16.92,0-4.47,.35-8.83,1.01-13.15,.51-3.19,1.17-6.38,1.98-9.45,4.12-15.41,12.29-29.1,23.34-39.92,3.74-3.7,7.78-7.04,12.14-10,14.08-9.57,31.05-15.17,49.29-15.17h.04l89.1,.04c23.46,0,45.52,9.14,62.09,25.76,16.57,16.58,25.68,38.63,25.68,62.1-.04,40.03-27.08,74.93-65.75,84.93-6.5,1.67-11.71,6.5-13.89,12.88l-11.75,34.32-22.1-28.75c-7.59-9.88-19.34-15.68-31.83-15.68h-31.59c-8.17,0-16.15-1.09-23.81-3.23-2.68-.78-5.49-1.17-8.29-1.17h-55.52c-3.5,0-5.29,4.28-2.8,6.77l.08,.08c24.12,24.16,56.18,37.47,90.3,37.47h31.71l34.9,45.4c5.49,7.16,13.93,11.2,22.76,11.2,1.52,0,3.11-.12,4.67-.35,10.43-1.75,19.06-9.03,22.53-19.06l15.21-44.43c50.58-17.86,85.01-65.87,85.09-120.3,.04-34.16-13.23-66.26-37.35-90.42Z"/>
        <path class="cls-2" d="M515.04,610.6h-102.95c-69.73,0-126.46-56.73-126.46-126.46s56.36-125.63,125.63-125.63h113.58c11.02,0,19.96,8.94,19.96,19.96s-8.94,19.96-19.96,19.96h-113.58c-47.26,0-85.71,38.45-85.71,85.71s38.82,86.54,86.54,86.54h102.95c21.5,0,38.99-17.49,38.99-38.99,0-9.5-7.73-17.23-17.23-17.23h-88.77c-11.02,0-19.96-8.94-19.96-19.96s8.94-19.96,19.96-19.96h88.77c31.51,0,57.15,25.64,57.15,57.15,0,43.51-35.4,78.91-78.91,78.91Z"/>
        <path class="cls-1" d="M484.32,474.55c-11.05,10.82-19.22,24.51-23.34,39.92h-12.96c-11.01,0-19.96-8.95-19.96-19.96s8.95-19.96,19.96-19.96h36.3Z"/>
      </g>
    </g>
  </g>
</svg>