<?xml version="1.0" encoding="UTF-8"?>
<svg xmlns="http://www.w3.org/2000/svg" viewBox="0 0 1080 1080">
  <defs>
    <style>
      .cls-1 {
        fill: #89f0a6;
      }

      .cls-2 {
        fill: #0e5723;
      }

      .cls-3 {
        mix-blend-mode: multiply;
      }

      .cls-4 {
        isolation: isolate;
      }
    </style>
  </defs>
  <g class="cls-4">
    <g id="Layer_1" data-name="Layer 1">
      <g>
        <g class="cls-3">
          <path class="cls-2" d="M316.54,507.35c-10.08-10.08-23.5-15.64-37.76-15.66h-37.25c-29.4,0-53.34,23.92-53.37,53.32,0,2.67,.18,5.28,.55,7.87,.18,1.15,1.19,2.02,2.36,2.02h12.11c1.48,0,2.6-1.35,2.33-2.8-.44-2.31-.67-4.67-.67-7.07,0-1.87,.15-3.69,.42-5.5,.21-1.33,.49-2.67,.83-3.95,1.72-6.44,5.14-12.16,9.76-16.68,1.56-1.54,3.25-2.94,5.07-4.18,5.89-4,12.98-6.34,20.6-6.34h.02l37.24,.02c9.81,0,19.03,3.82,25.95,10.76,6.93,6.93,10.73,16.15,10.73,25.95-.02,16.73-11.32,31.32-27.48,35.5-2.72,.7-4.89,2.72-5.81,5.38l-4.91,14.34-9.24-12.02c-3.17-4.13-8.08-6.55-13.3-6.55h-13.2c-3.41,0-6.75-.45-9.95-1.35-1.12-.33-2.29-.49-3.46-.49h-23.2c-1.46,0-2.21,1.79-1.17,2.83l.03,.03c10.08,10.1,23.48,15.66,37.74,15.66h13.25l14.59,18.98c2.29,2.99,5.82,4.68,9.51,4.68,.63,0,1.3-.05,1.95-.15,4.36-.73,7.97-3.77,9.42-7.97l6.36-18.57c21.14-7.46,35.53-27.53,35.56-50.28,.02-14.28-5.53-27.69-15.61-37.79Z"/>
          <path class="cls-2" d="M228.69,575.76h-43.03c-29.14,0-52.85-23.71-52.85-52.85s23.56-52.51,52.51-52.51h47.47c4.61,0,8.34,3.74,8.34,8.34s-3.74,8.34-8.34,8.34h-47.47c-19.75,0-35.82,16.07-35.82,35.82s16.23,36.17,36.17,36.17h43.03c8.99,0,16.3-7.31,16.3-16.3,0-3.97-3.23-7.2-7.2-7.2h-37.1c-4.61,0-8.34-3.74-8.34-8.34s3.74-8.34,8.34-8.34h37.1c13.17,0,23.89,10.72,23.89,23.89,0,18.19-14.8,32.98-32.98,32.98Z"/>
          <path class="cls-1" d="M215.85,518.9c-4.62,4.52-8.03,10.24-9.76,16.68h-5.42c-4.6,0-8.34-3.74-8.34-8.34s3.74-8.34,8.34-8.34h15.17Z"/>
        </g>
        <g>
          <path class="cls-2" d="M399.97,509.1c16.5,0,24.55,10.37,26.37,20.57h-11.2c-1.82-5.72-6.05-10.62-15.01-10.62-11.94,0-18.24,8.87-18.24,19.9s5.97,19.9,17.83,19.9c8.46,0,13.19-5.47,14.93-11.94h-14.18v-9.29h25.88v30.52h-11.61v-3.81c0-1.91,.33-3.65,1.49-6.47,.25-.66,.08-1.16-.41-1.33-.66-.25-1.08,.17-1.24,.58-1.74,4.23-7.13,11.69-17.08,11.69-16.83,0-26.87-13.35-26.87-29.85s10.28-29.86,29.36-29.86Z"/>
          <path class="cls-2" d="M447.25,542.36c7.8-.41,14.68,.33,14.6-3.73-.08-2.99-1.24-6.3-8.79-6.3s-9.37,3.07-9.95,6.63h-10.45c1.49-11.03,10.95-15.26,20.73-15.26s19.07,3.32,19.07,20.24v24.22h-10.62v-3.07c0-1.99,.5-3.32,1.24-4.81,.33-.75,.66-1.58-.08-1.91-.83-.33-1.16,.5-1.33,.91-2.49,6.05-7.3,9.54-15.09,9.54-8.21,0-15.26-5.31-15.26-12.69,0-9.7,7.13-13.27,15.92-13.77Zm1.82,7.05c-4.56,.5-7.13,2.24-7.13,6.14,0,3.65,3.48,5.97,8.38,5.31,5.64-.75,11.44-4.4,11.53-15.26-2.49,2.74-6.47,3.15-12.77,3.82Z"/>
          <path class="cls-2" d="M487.22,553.39c.08,3.23,1.99,7.13,9.7,7.13,6.8,0,9.04-2.32,9.04-5.22,0-3.23-4.31-3.73-12.69-4.73-13.44-1.66-15.18-8.62-15.18-13.52,0-7.13,6.3-13.35,18.74-13.35,11.53,0,17.83,6.14,18.41,14.1h-10.45c-.25-2.74-2.07-5.81-8.21-5.81s-7.88,1.99-7.88,4.48c0,2.07,.91,3.81,9.45,4.64,10.7,1.08,18.41,4.56,18.41,13.35s-7.05,14.35-19.99,14.35-19.41-6.05-19.82-15.42h10.45Z"/>
          <path class="cls-2" d="M532.18,568.15h-10.62v-59.71h10.62v59.71Z"/>
          <path class="cls-2" d="M578.7,548.91h-31.85c.75,6.63,5.06,10.62,11.69,10.62,5.06,0,7.63-2.74,8.87-6.63h10.78c-1.91,9.04-8.04,15.92-19.74,15.92-14.18,0-21.98-9.54-21.98-22.56,0-13.68,8.46-22.56,21.81-22.56,10.12,0,20.65,6.05,20.65,21.98,0,1.16-.08,1.99-.25,3.23Zm-10.37-7.3c-.41-5.31-3.57-9.29-9.7-9.29-7.21,0-10.28,4.06-11.36,9.29h21.06Z"/>
          <path class="cls-2" d="M592.39,553.39c.08,3.23,1.99,7.13,9.7,7.13,6.8,0,9.04-2.32,9.04-5.22,0-3.23-4.31-3.73-12.69-4.73-13.44-1.66-15.18-8.62-15.18-13.52,0-7.13,6.3-13.35,18.74-13.35,11.53,0,17.83,6.14,18.41,14.1h-10.45c-.25-2.74-2.07-5.81-8.21-5.81s-7.88,1.99-7.88,4.48c0,2.07,.91,3.81,9.45,4.64,10.7,1.08,18.41,4.56,18.41,13.35s-7.05,14.35-19.99,14.35-19.41-6.05-19.82-15.42h10.45Z"/>
          <path class="cls-2" d="M635.18,553.39c.08,3.23,1.99,7.13,9.7,7.13,6.8,0,9.04-2.32,9.04-5.22,0-3.23-4.31-3.73-12.69-4.73-13.44-1.66-15.18-8.62-15.18-13.52,0-7.13,6.3-13.35,18.74-13.35,11.53,0,17.83,6.14,18.41,14.1h-10.45c-.25-2.74-2.07-5.81-8.21-5.81s-7.88,1.99-7.88,4.48c0,2.07,.91,3.81,9.45,4.64,10.7,1.08,18.41,4.56,18.41,13.35s-7.05,14.35-19.99,14.35-19.41-6.05-19.82-15.42h10.45Z"/>
          <path class="cls-2" d="M718.45,509.1c16.5,0,24.55,10.37,26.37,20.57h-11.2c-1.82-5.72-6.05-10.62-15.01-10.62-11.94,0-18.24,8.87-18.24,19.9s5.97,19.9,17.83,19.9c8.46,0,13.19-5.47,14.93-11.94h-14.18v-9.29h25.88v30.52h-11.61v-3.81c0-1.91,.33-3.65,1.49-6.47,.25-.66,.08-1.16-.41-1.33-.66-.25-1.08,.17-1.24,.58-1.74,4.23-7.13,11.69-17.08,11.69-16.83,0-26.87-13.35-26.87-29.85s10.28-29.86,29.36-29.86Z"/>
          <path class="cls-2" d="M793.59,546.26c0,12.44-8.21,22.56-21.89,22.56s-21.89-10.12-21.89-22.56,8.21-22.56,21.89-22.56,21.89,10.12,21.89,22.56Zm-10.62,0c0-7.13-4.06-12.94-11.28-12.94s-11.28,5.8-11.28,12.94,4.06,12.94,11.28,12.94,11.28-5.8,11.28-12.94Z"/>
          <path class="cls-2" d="M807.03,553.39c.08,3.23,1.99,7.13,9.7,7.13,6.8,0,9.04-2.32,9.04-5.22,0-3.23-4.31-3.73-12.69-4.73-13.44-1.66-15.18-8.62-15.18-13.52,0-7.13,6.3-13.35,18.74-13.35,11.53,0,17.83,6.14,18.41,14.1h-10.45c-.25-2.74-2.07-5.81-8.21-5.81s-7.88,1.99-7.88,4.48c0,2.07,.91,3.81,9.45,4.64,10.7,1.08,18.41,4.56,18.41,13.35s-7.05,14.35-19.99,14.35-19.41-6.05-19.82-15.42h10.45Z"/>
          <path class="cls-2" d="M849.83,553.39c.08,3.23,1.99,7.13,9.7,7.13,6.8,0,9.04-2.32,9.04-5.22,0-3.23-4.31-3.73-12.69-4.73-13.44-1.66-15.18-8.62-15.18-13.52,0-7.13,6.3-13.35,18.74-13.35,11.53,0,17.83,6.14,18.41,14.1h-10.45c-.25-2.74-2.07-5.81-8.21-5.81s-7.88,1.99-7.88,4.48c0,2.07,.91,3.81,9.45,4.64,10.7,1.08,18.41,4.56,18.41,13.35s-7.05,14.35-19.99,14.35-19.41-6.05-19.82-15.42h10.45Z"/>
          <path class="cls-2" d="M884.16,508.44h10.62v10.62h-10.62v-10.62Zm10.62,15.92v43.79h-10.62v-43.79h10.62Z"/>
          <path class="cls-2" d="M913.03,524.36v1.66c0,1.74-.42,3.07-1.16,4.56-.33,.83-.91,1.83-.08,2.24,.83,.42,1.33-.66,1.49-1,2.65-4.64,7.05-8.13,13.85-8.13,11.36,0,19.07,9.95,19.07,22.56s-7.71,22.56-19.07,22.56c-6.63,0-11.2-3.4-13.85-8.21-.17-.25-.5-1.08-1.24-.83-.91,.33-.58,1.16-.17,1.99,.75,1.49,1.16,2.82,1.16,4.48v17.83h-10.62v-59.71h10.62Zm22.56,21.89c0-6.97-3.48-12.94-10.95-12.94-6.97,0-11.61,5.97-11.61,12.94s4.64,12.94,11.61,12.94c7.46,0,10.95-5.97,10.95-12.94Z"/>
        </g>
      </g>
    </g>
  </g>
</svg>