<?xml version="1.0" encoding="UTF-8"?>
<svg xmlns="http://www.w3.org/2000/svg" viewBox="0 0 1080 1080">
  <defs>
    <style>
      .cls-1 {
        fill: #89f0a6;
      }

      .cls-2 {
        fill: #d1ebd8;
      }

      .cls-3 {
        fill: #0e5723;
      }

      .cls-4 {
        mix-blend-mode: multiply;
      }

      .cls-5 {
        isolation: isolate;
      }
    </style>
  </defs>
  <g class="cls-5">
    <g id="Layer_1" data-name="Layer 1">
      <g>
        <g>
          <g>
            <path class="cls-2" d="M96.54,455.49h109.38c56.88,0,103.06,46.18,103.06,103.06h0c0,56.88-46.18,103.06-103.06,103.06h-6.33c-56.88,0-103.06-46.18-103.06-103.06v-103.06h0Z"/>
            <path class="cls-3" d="M205.92,668.61h-6.33c-60.69,0-110.06-49.37-110.06-110.06v-110.06h116.39c60.69,0,110.06,49.37,110.06,110.06s-49.37,110.06-110.06,110.06Zm-102.38-206.12v96.06c0,52.97,43.09,96.06,96.06,96.06h6.33c52.96,0,96.06-43.09,96.06-96.06s-43.09-96.06-96.06-96.06H103.54Z"/>
          </g>
          <g class="cls-4">
            <path class="cls-3" d="M260.12,531.79c-6.93-6.93-16.16-10.76-25.97-10.77h-25.62c-20.22,0-36.68,16.45-36.7,36.67,0,1.83,.12,3.63,.38,5.41,.12,.79,.82,1.39,1.62,1.39h8.33c1.02,0,1.79-.93,1.6-1.92-.3-1.59-.46-3.21-.46-4.86,0-1.29,.1-2.54,.29-3.78,.15-.92,.34-1.83,.57-2.72,1.19-4.43,3.53-8.37,6.71-11.47,1.07-1.06,2.24-2.02,3.49-2.87,4.05-2.75,8.92-4.36,14.17-4.36h25.62c6.74,.01,13.08,2.64,17.85,7.41,4.76,4.76,7.38,11.11,7.38,17.85-.01,11.51-7.78,21.54-18.9,24.41-1.87,.48-3.37,1.87-3.99,3.7l-3.38,9.86-6.35-8.26c-2.18-2.84-5.56-4.51-9.15-4.51h-9.08c-2.35,0-4.64-.31-6.84-.93-.77-.22-1.58-.34-2.38-.34h-15.96c-1.01,0-1.52,1.23-.81,1.95l.02,.02c6.93,6.94,16.15,10.77,25.96,10.77h9.11l10.03,13.05c1.58,2.06,4,3.22,6.54,3.22,.44,0,.89-.03,1.34-.1,3-.5,5.48-2.59,6.48-5.48l4.37-12.77c14.54-5.13,24.44-18.93,24.46-34.58,.01-9.82-3.8-19.05-10.74-25.99Z"/>
            <path class="cls-3" d="M199.7,578.84h-29.59c-20.04,0-36.35-16.31-36.35-36.35s16.2-36.11,36.11-36.11h32.65c3.17,0,5.74,2.57,5.74,5.74s-2.57,5.74-5.74,5.74h-32.65c-13.59,0-24.64,11.05-24.64,24.64s11.16,24.87,24.87,24.87h29.59c6.18,0,11.21-5.03,11.21-11.21,0-2.73-2.22-4.95-4.95-4.95h-25.52c-3.17,0-5.74-2.57-5.74-5.74s2.57-5.74,5.74-5.74h25.52c9.06,0,16.43,7.37,16.43,16.43,0,12.51-10.18,22.68-22.68,22.68Z"/>
            <path class="cls-1" d="M190.87,539.74c-3.18,3.11-5.52,7.05-6.71,11.47h-3.72c-3.16,0-5.74-2.57-5.74-5.74s2.57-5.74,5.74-5.74h10.43Z"/>
          </g>
        </g>
        <g>
          <path class="cls-3" d="M385.89,510.4c18.03,0,26.81,11.32,28.8,22.46h-12.23c-1.99-6.25-6.61-11.59-16.39-11.59-13.04,0-19.93,9.69-19.93,21.74s6.52,21.74,19.47,21.74c9.24,0,14.4-5.98,16.3-13.04h-15.49v-10.14h28.26v33.33h-12.68v-4.17c0-2.08,.36-3.98,1.63-7.06,.27-.72,.09-1.27-.45-1.45-.72-.27-1.18,.18-1.36,.63-1.9,4.62-7.79,12.77-18.66,12.77-18.39,0-29.35-14.58-29.35-32.61s11.23-32.61,32.06-32.61Z"/>
          <path class="cls-3" d="M437.51,546.72c8.51-.45,16.03,.36,15.94-4.08-.09-3.26-1.36-6.88-9.6-6.88s-10.23,3.35-10.87,7.25h-11.41c1.63-12.05,11.96-16.67,22.64-16.67s20.83,3.62,20.83,22.1v26.45h-11.59v-3.35c0-2.17,.54-3.62,1.36-5.25,.36-.82,.72-1.72-.09-2.08-.91-.36-1.27,.54-1.45,1-2.72,6.61-7.97,10.42-16.48,10.42-8.97,0-16.67-5.8-16.67-13.86,0-10.6,7.79-14.49,17.39-15.04Zm1.99,7.7c-4.98,.54-7.79,2.45-7.79,6.7,0,3.99,3.8,6.52,9.15,5.8,6.16-.82,12.5-4.8,12.59-16.67-2.72,2.99-7.06,3.44-13.95,4.17Z"/>
          <path class="cls-3" d="M481.17,558.77c.09,3.53,2.17,7.79,10.6,7.79,7.43,0,9.87-2.54,9.87-5.71,0-3.53-4.71-4.08-13.86-5.16-14.67-1.81-16.58-9.42-16.58-14.76,0-7.79,6.88-14.58,20.47-14.58,12.59,0,19.47,6.7,20.11,15.4h-11.41c-.27-2.99-2.26-6.34-8.97-6.34s-8.6,2.17-8.6,4.89c0,2.26,1,4.17,10.33,5.07,11.68,1.18,20.11,4.98,20.11,14.58s-7.7,15.67-21.83,15.67-21.19-6.61-21.65-16.85h11.41Z"/>
          <path class="cls-3" d="M530.26,574.89h-11.59v-65.21h11.59v65.21Z"/>
          <path class="cls-3" d="M581.07,553.88h-34.78c.81,7.25,5.53,11.59,12.77,11.59,5.52,0,8.33-2.99,9.69-7.25h11.77c-2.08,9.87-8.79,17.39-21.56,17.39-15.49,0-24-10.42-24-24.64,0-14.95,9.24-24.64,23.82-24.64,11.05,0,22.55,6.61,22.55,24,0,1.27-.09,2.17-.27,3.53Zm-11.32-7.97c-.45-5.8-3.89-10.14-10.6-10.14-7.88,0-11.23,4.44-12.41,10.14h23.01Z"/>
          <path class="cls-3" d="M596.01,558.77c.09,3.53,2.17,7.79,10.6,7.79,7.43,0,9.87-2.54,9.87-5.71,0-3.53-4.71-4.08-13.86-5.16-14.67-1.81-16.58-9.42-16.58-14.76,0-7.79,6.88-14.58,20.47-14.58,12.59,0,19.47,6.7,20.11,15.4h-11.41c-.27-2.99-2.26-6.34-8.97-6.34s-8.6,2.17-8.6,4.89c0,2.26,1,4.17,10.33,5.07,11.68,1.18,20.11,4.98,20.11,14.58s-7.7,15.67-21.83,15.67-21.19-6.61-21.65-16.85h11.41Z"/>
          <path class="cls-3" d="M642.74,558.77c.09,3.53,2.17,7.79,10.6,7.79,7.43,0,9.87-2.54,9.87-5.71,0-3.53-4.71-4.08-13.86-5.16-14.67-1.81-16.58-9.42-16.58-14.76,0-7.79,6.88-14.58,20.47-14.58,12.59,0,19.47,6.7,20.11,15.4h-11.41c-.27-2.99-2.26-6.34-8.97-6.34s-8.6,2.17-8.6,4.89c0,2.26,1,4.17,10.33,5.07,11.68,1.18,20.11,4.98,20.11,14.58s-7.7,15.67-21.83,15.67-21.19-6.61-21.65-16.85h11.41Z"/>
          <path class="cls-3" d="M733.68,510.4c18.03,0,26.81,11.32,28.8,22.46h-12.23c-1.99-6.25-6.61-11.59-16.39-11.59-13.04,0-19.93,9.69-19.93,21.74s6.52,21.74,19.47,21.74c9.24,0,14.4-5.98,16.3-13.04h-15.49v-10.14h28.26v33.33h-12.68v-4.17c0-2.08,.36-3.98,1.63-7.06,.27-.72,.09-1.27-.45-1.45-.72-.27-1.18,.18-1.36,.63-1.9,4.62-7.79,12.77-18.66,12.77-18.39,0-29.35-14.58-29.35-32.61s11.23-32.61,32.06-32.61Z"/>
          <path class="cls-3" d="M815.73,550.98c0,13.59-8.97,24.64-23.91,24.64s-23.91-11.05-23.91-24.64,8.97-24.64,23.91-24.64,23.91,11.05,23.91,24.64Zm-11.59,0c0-7.79-4.44-14.13-12.32-14.13s-12.32,6.34-12.32,14.13,4.44,14.13,12.32,14.13,12.32-6.34,12.32-14.13Z"/>
          <path class="cls-3" d="M830.4,558.77c.09,3.53,2.17,7.79,10.6,7.79,7.43,0,9.87-2.54,9.87-5.71,0-3.53-4.71-4.08-13.86-5.16-14.67-1.81-16.58-9.42-16.58-14.76,0-7.79,6.88-14.58,20.47-14.58,12.59,0,19.47,6.7,20.11,15.4h-11.41c-.27-2.99-2.26-6.34-8.97-6.34s-8.6,2.17-8.6,4.89c0,2.26,1,4.17,10.33,5.07,11.68,1.18,20.11,4.98,20.11,14.58s-7.7,15.67-21.83,15.67-21.19-6.61-21.65-16.85h11.41Z"/>
          <path class="cls-3" d="M877.14,558.77c.09,3.53,2.17,7.79,10.6,7.79,7.43,0,9.87-2.54,9.87-5.71,0-3.53-4.71-4.08-13.86-5.16-14.67-1.81-16.58-9.42-16.58-14.76,0-7.79,6.88-14.58,20.47-14.58,12.59,0,19.47,6.7,20.11,15.4h-11.41c-.27-2.99-2.26-6.34-8.97-6.34s-8.6,2.17-8.6,4.89c0,2.26,1,4.17,10.33,5.07,11.68,1.18,20.11,4.98,20.11,14.58s-7.7,15.67-21.83,15.67-21.19-6.61-21.65-16.85h11.41Z"/>
          <path class="cls-3" d="M914.63,509.68h11.59v11.59h-11.59v-11.59Zm11.59,17.39v47.82h-11.59v-47.82h11.59Z"/>
          <path class="cls-3" d="M946.15,527.07v1.81c0,1.9-.45,3.35-1.27,4.98-.36,.91-1,1.99-.09,2.45,.91,.45,1.45-.72,1.63-1.09,2.9-5.07,7.7-8.88,15.13-8.88,12.41,0,20.83,10.87,20.83,24.64s-8.42,24.64-20.83,24.64c-7.25,0-12.23-3.71-15.13-8.97-.18-.27-.54-1.18-1.36-.91-1,.36-.63,1.27-.18,2.17,.82,1.63,1.27,3.08,1.27,4.89v19.47h-11.59v-65.21h11.59Zm24.64,23.91c0-7.61-3.8-14.13-11.96-14.13-7.61,0-12.68,6.52-12.68,14.13s5.07,14.13,12.68,14.13c8.15,0,11.96-6.52,11.96-14.13Z"/>
        </g>
      </g>
    </g>
  </g>
</svg>