<?xml version="1.0" encoding="UTF-8"?>
<svg xmlns="http://www.w3.org/2000/svg" viewBox="0 0 1080 1080">
  <defs>
    <style>
      .cls-1 {
        fill: #89f0a6;
      }

      .cls-2 {
        fill: #d1ebd8;
      }

      .cls-3 {
        fill: #0e5723;
      }

      .cls-4 {
        mix-blend-mode: multiply;
      }

      .cls-5 {
        isolation: isolate;
      }
    </style>
  </defs>
  <g class="cls-5">
    <g id="Layer_1" data-name="Layer 1">
      <g>
        <g>
          <path class="cls-2" d="M285.63,346.51h245.57c127.7,0,231.37,103.68,231.37,231.37h0c0,127.7-103.68,231.37-231.37,231.37h-14.2c-127.7,0-231.37-103.68-231.37-231.37v-231.37h0Z"/>
          <path class="cls-3" d="M531.2,824.98h-14.2c-66,0-128.05-25.7-174.72-72.37-46.67-46.67-72.37-108.72-72.37-174.72v-247.1h261.3c66,0,128.05,25.7,174.72,72.37s72.37,108.72,72.37,174.72-25.7,128.05-72.37,174.72c-46.67,46.67-108.72,72.37-174.72,72.37Zm-229.85-462.75v215.65c0,57.6,22.43,111.76,63.16,152.49s94.89,63.16,152.49,63.16h14.2c57.6,0,111.76-22.43,152.49-63.16s63.16-94.89,63.16-152.49-22.43-111.76-63.16-152.49c-40.73-40.73-94.89-63.16-152.49-63.16h-229.85Z"/>
        </g>
        <g class="cls-4">
          <path class="cls-3" d="M652.87,517.82c-15.57-15.57-36.28-24.15-58.3-24.18h-57.52c-45.39,0-82.35,36.93-82.4,82.33,0,4.12,.28,8.16,.85,12.15,.28,1.78,1.83,3.11,3.64,3.11h18.71c2.28,0,4.02-2.08,3.59-4.32-.68-3.57-1.03-7.21-1.03-10.92,0-2.89,.23-5.7,.65-8.49,.33-2.06,.75-4.12,1.28-6.1,2.66-9.94,7.93-18.78,15.06-25.76,2.41-2.39,5.02-4.54,7.83-6.45,9.09-6.18,20.04-9.79,31.81-9.79h.03l57.5,.03c15.14,0,29.38,5.9,40.07,16.62,10.7,10.7,16.57,24.93,16.57,40.07-.03,25.84-17.48,48.36-42.43,54.81-4.19,1.08-7.56,4.19-8.96,8.31l-7.58,22.15-14.26-18.55c-4.9-6.38-12.48-10.12-20.54-10.12h-20.39c-5.27,0-10.42-.7-15.37-2.08-1.73-.5-3.54-.75-5.35-.75h-35.83c-2.26,0-3.41,2.76-1.81,4.37l.05,.05c15.57,15.59,36.26,24.18,58.28,24.18h20.46l22.52,29.3c3.54,4.62,8.99,7.23,14.69,7.23,.98,0,2.01-.07,3.01-.23,6.73-1.13,12.3-5.83,14.54-12.3l9.82-28.67c32.64-11.52,54.86-42.51,54.91-77.63,.02-22.04-8.54-42.76-24.1-58.35Z"/>
          <path class="cls-3" d="M517.23,623.45h-66.44c-45,0-81.61-36.61-81.61-81.61s36.37-81.08,81.08-81.08h73.29c7.11,0,12.88,5.77,12.88,12.88s-5.77,12.88-12.88,12.88h-73.29c-30.5,0-55.31,24.81-55.31,55.31s25.05,55.85,55.85,55.85h66.44c13.87,0,25.16-11.29,25.16-25.16,0-6.13-4.99-11.12-11.12-11.12h-57.29c-7.11,0-12.88-5.77-12.88-12.88s5.77-12.88,12.88-12.88h57.29c20.34,0,36.88,16.54,36.88,36.88,0,28.08-22.84,50.92-50.92,50.92Z"/>
          <path class="cls-1" d="M497.41,535.65c-7.13,6.98-12.4,15.82-15.06,25.76h-8.36c-7.11,0-12.88-5.77-12.88-12.88s5.77-12.88,12.88-12.88h23.43Z"/>
        </g>
      </g>
    </g>
  </g>
</svg>