<?xml version="1.0" encoding="UTF-8"?>
<svg xmlns="http://www.w3.org/2000/svg" xmlns:xlink="http://www.w3.org/1999/xlink" viewBox="0 0 1080 1080">
  <defs>
    <style>
      .cls-1 {
        fill: none;
      }

      .cls-2 {
        fill: #89f0a6;
      }

      .cls-3 {
        fill: #0e5723;
      }

      .cls-4 {
        mix-blend-mode: multiply;
      }

      .cls-5 {
        isolation: isolate;
      }
    </style>
    <clipPath id="clippath">
      <rect class="cls-1" x="561.36" y="-1235.35" width="416.45" height="416.45" rx="-201.22" ry="-201.22"/>
    </clipPath>
    <filter id="drop-shadow-1" filterUnits="userSpaceOnUse">
      <feOffset dx="-11.41" dy="34.23"/>
      <feGaussianBlur result="blur" stdDeviation="19.97"/>
      <feFlood flood-color="#8f3416" flood-opacity=".28"/>
      <feComposite in2="blur" operator="in"/>
      <feComposite in="SourceGraphic"/>
    </filter>
  </defs>
  <g class="cls-5">
    <g id="Layer_1" data-name="Layer 1">
      <g class="cls-4">
        <path class="cls-3" d="M728.34,421.3c-24.12-24.12-56.22-37.43-90.34-37.47h-89.13c-70.34,0-127.61,57.23-127.69,127.57,0,6.38,.43,12.64,1.32,18.83,.43,2.76,2.84,4.82,5.64,4.82h28.99c3.54,0,6.22-3.23,5.56-6.69-1.05-5.53-1.6-11.17-1.6-16.92,0-4.47,.35-8.83,1.01-13.15,.51-3.19,1.17-6.38,1.98-9.45,4.12-15.41,12.29-29.1,23.34-39.92,3.74-3.7,7.78-7.04,12.14-10,14.08-9.57,31.05-15.17,49.29-15.17h.04l89.1,.04c23.46,0,45.52,9.14,62.09,25.76,16.57,16.58,25.68,38.63,25.68,62.1-.04,40.03-27.08,74.93-65.75,84.93-6.5,1.67-11.71,6.5-13.89,12.88l-11.75,34.32-22.1-28.75c-7.59-9.88-19.34-15.68-31.83-15.68h-31.59c-8.17,0-16.15-1.09-23.81-3.23-2.68-.78-5.49-1.17-8.29-1.17h-55.52c-3.5,0-5.29,4.28-2.8,6.77l.08,.08c24.12,24.16,56.18,37.47,90.3,37.47h31.71l34.9,45.4c5.49,7.16,13.93,11.2,22.76,11.2,1.52,0,3.11-.12,4.67-.35,10.43-1.75,19.06-9.03,22.53-19.06l15.21-44.43c50.58-17.86,85.01-65.87,85.09-120.3,.04-34.16-13.23-66.26-37.35-90.42Z"/>
        <path class="cls-3" d="M518.15,584.98h-102.95c-69.73,0-126.46-56.73-126.46-126.46s56.36-125.63,125.63-125.63h113.58c11.02,0,19.96,8.94,19.96,19.96s-8.94,19.96-19.96,19.96h-113.58c-47.26,0-85.71,38.45-85.71,85.71s38.82,86.54,86.54,86.54h102.95c21.5,0,38.99-17.49,38.99-38.99,0-9.5-7.73-17.23-17.23-17.23h-88.77c-11.02,0-19.96-8.94-19.96-19.96s8.94-19.96,19.96-19.96h88.77c31.51,0,57.15,25.64,57.15,57.15,0,43.51-35.4,78.91-78.91,78.91Z"/>
        <path class="cls-2" d="M487.43,448.93c-11.05,10.82-19.22,24.51-23.34,39.92h-12.96c-11.01,0-19.96-8.95-19.96-19.96s8.95-19.96,19.96-19.96h36.3Z"/>
      </g>
      <g>
        <path class="cls-3" d="M293.14,728.2c14.95,0,22.23,9.39,23.89,18.63h-10.14c-1.65-5.18-5.48-9.62-13.6-9.62-10.82,0-16.53,8.04-16.53,18.03s5.41,18.03,16.15,18.03c7.66,0,11.94-4.96,13.52-10.82h-12.85v-8.41h23.44v27.64h-10.52v-3.46c0-1.73,.3-3.3,1.35-5.86,.23-.6,.08-1.05-.38-1.2-.6-.23-.98,.15-1.13,.53-1.58,3.83-6.46,10.59-15.47,10.59-15.25,0-24.34-12.09-24.34-27.04s9.31-27.04,26.59-27.04Z"/>
        <path class="cls-3" d="M335.96,758.32c7.06-.38,13.29,.3,13.22-3.38-.08-2.7-1.13-5.71-7.96-5.71s-8.49,2.78-9.01,6.01h-9.46c1.35-9.99,9.92-13.82,18.78-13.82s17.28,3.01,17.28,18.33v21.93h-9.62v-2.78c0-1.8,.45-3,1.13-4.36,.3-.68,.6-1.43-.08-1.73-.75-.3-1.05,.45-1.2,.83-2.25,5.48-6.61,8.64-13.67,8.64-7.44,0-13.82-4.81-13.82-11.49,0-8.79,6.46-12.02,14.42-12.47Zm1.65,6.38c-4.13,.45-6.46,2.03-6.46,5.56,0,3.3,3.16,5.41,7.59,4.81,5.11-.68,10.37-3.98,10.44-13.82-2.25,2.48-5.86,2.85-11.57,3.46Z"/>
        <path class="cls-3" d="M372.17,768.31c.08,2.93,1.8,6.46,8.79,6.46,6.16,0,8.19-2.1,8.19-4.73,0-2.93-3.91-3.38-11.49-4.28-12.17-1.5-13.75-7.81-13.75-12.25,0-6.46,5.71-12.09,16.98-12.09,10.44,0,16.15,5.56,16.68,12.77h-9.46c-.22-2.48-1.88-5.26-7.44-5.26s-7.13,1.8-7.13,4.06c0,1.88,.83,3.46,8.56,4.21,9.69,.98,16.68,4.13,16.68,12.09s-6.39,13-18.11,13-17.58-5.48-17.95-13.97h9.46Z"/>
        <path class="cls-3" d="M412.88,781.68h-9.62v-54.09h9.62v54.09Z"/>
        <path class="cls-3" d="M455.03,764.26h-28.85c.68,6.01,4.58,9.62,10.59,9.62,4.58,0,6.91-2.48,8.04-6.01h9.77c-1.73,8.19-7.29,14.42-17.88,14.42-12.84,0-19.91-8.64-19.91-20.43,0-12.39,7.66-20.43,19.76-20.43,9.16,0,18.7,5.48,18.7,19.91,0,1.05-.07,1.8-.22,2.93Zm-9.39-6.61c-.38-4.81-3.23-8.41-8.79-8.41-6.54,0-9.31,3.68-10.29,8.41h19.08Z"/>
        <path class="cls-3" d="M467.42,768.31c.08,2.93,1.8,6.46,8.79,6.46,6.16,0,8.19-2.1,8.19-4.73,0-2.93-3.91-3.38-11.49-4.28-12.17-1.5-13.75-7.81-13.75-12.25,0-6.46,5.71-12.09,16.98-12.09,10.44,0,16.15,5.56,16.68,12.77h-9.46c-.22-2.48-1.88-5.26-7.44-5.26s-7.13,1.8-7.13,4.06c0,1.88,.83,3.46,8.56,4.21,9.69,.98,16.68,4.13,16.68,12.09s-6.39,13-18.11,13-17.58-5.48-17.95-13.97h9.46Z"/>
        <path class="cls-3" d="M506.18,768.31c.07,2.93,1.8,6.46,8.79,6.46,6.16,0,8.19-2.1,8.19-4.73,0-2.93-3.91-3.38-11.49-4.28-12.17-1.5-13.75-7.81-13.75-12.25,0-6.46,5.71-12.09,16.98-12.09,10.44,0,16.15,5.56,16.68,12.77h-9.46c-.23-2.48-1.88-5.26-7.44-5.26s-7.14,1.8-7.14,4.06c0,1.88,.83,3.46,8.56,4.21,9.69,.98,16.68,4.13,16.68,12.09s-6.38,13-18.1,13-17.58-5.48-17.95-13.97h9.46Z"/>
        <path class="cls-3" d="M581.6,728.2c14.95,0,22.23,9.39,23.89,18.63h-10.14c-1.65-5.18-5.48-9.62-13.6-9.62-10.82,0-16.53,8.04-16.53,18.03s5.41,18.03,16.15,18.03c7.66,0,11.94-4.96,13.52-10.82h-12.85v-8.41h23.44v27.64h-10.52v-3.46c0-1.73,.3-3.3,1.35-5.86,.23-.6,.08-1.05-.38-1.2-.6-.23-.98,.15-1.13,.53-1.58,3.83-6.46,10.59-15.47,10.59-15.25,0-24.34-12.09-24.34-27.04s9.31-27.04,26.59-27.04Z"/>
        <path class="cls-3" d="M649.66,761.85c0,11.27-7.44,20.43-19.83,20.43s-19.83-9.16-19.83-20.43,7.44-20.43,19.83-20.43,19.83,9.16,19.83,20.43Zm-9.62,0c0-6.46-3.68-11.72-10.22-11.72s-10.22,5.26-10.22,11.72,3.68,11.72,10.22,11.72,10.22-5.26,10.22-11.72Z"/>
        <path class="cls-3" d="M661.83,768.31c.08,2.93,1.8,6.46,8.79,6.46,6.16,0,8.19-2.1,8.19-4.73,0-2.93-3.91-3.38-11.49-4.28-12.17-1.5-13.75-7.81-13.75-12.25,0-6.46,5.71-12.09,16.98-12.09,10.44,0,16.15,5.56,16.68,12.77h-9.46c-.22-2.48-1.88-5.26-7.44-5.26s-7.13,1.8-7.13,4.06c0,1.88,.83,3.46,8.56,4.21,9.69,.98,16.68,4.13,16.68,12.09s-6.39,13-18.11,13-17.58-5.48-17.95-13.97h9.46Z"/>
        <path class="cls-3" d="M700.6,768.31c.07,2.93,1.8,6.46,8.79,6.46,6.16,0,8.19-2.1,8.19-4.73,0-2.93-3.91-3.38-11.49-4.28-12.17-1.5-13.75-7.81-13.75-12.25,0-6.46,5.71-12.09,16.98-12.09,10.44,0,16.15,5.56,16.68,12.77h-9.46c-.23-2.48-1.88-5.26-7.44-5.26s-7.14,1.8-7.14,4.06c0,1.88,.83,3.46,8.56,4.21,9.69,.98,16.68,4.13,16.68,12.09s-6.38,13-18.1,13-17.58-5.48-17.95-13.97h9.46Z"/>
        <path class="cls-3" d="M731.7,727.6h9.62v9.62h-9.62v-9.62Zm9.62,14.42v39.66h-9.62v-39.66h9.62Z"/>
        <path class="cls-3" d="M757.84,742.02v1.5c0,1.58-.38,2.78-1.05,4.13-.3,.75-.83,1.65-.08,2.03,.75,.38,1.2-.6,1.35-.9,2.4-4.21,6.39-7.36,12.54-7.36,10.29,0,17.28,9.02,17.28,20.43s-6.98,20.43-17.28,20.43c-6.01,0-10.14-3.08-12.54-7.44-.15-.22-.45-.98-1.12-.75-.83,.3-.53,1.05-.15,1.8,.68,1.35,1.05,2.55,1.05,4.06v16.15h-9.62v-54.09h9.62Zm20.43,19.83c0-6.31-3.15-11.72-9.91-11.72-6.31,0-10.52,5.41-10.52,11.72s4.21,11.72,10.52,11.72c6.76,0,9.91-5.41,9.91-11.72Z"/>
      </g>
    </g>
  </g>
</svg>